<svg xmlns="http://www.w3.org/2000/svg" viewBox="0 0 950 560" fill="none"><path d="M844.5 374.8L845.4 375.3L863.5 385.5L863.8 388.4L871 393.4L868.7 399.5L869 402.4L872.2 404.2L872.4 405.5L871 408.5L871.3 410L870.9 412.4L872.7 415.6L874.7 420.5L876.6 421.6L872.6 424.5L867.1 426.4L864.1 426.3L862.4 427.8L858.9 428L857.6 428.6L851.6 427.2L847.8 427.6L846.4 420.8L844.7 418.5L843.7 417.1L838.8 416.2L836 414.7L832.8 413.8L830.8 413L828.7 411.7L826 405.4L823.1 402.6L822.1 399.7L822.6 397.1L821.7 392.5L823.8 392.3L825.6 390.5L827.5 387.8L828.8 386.8L828.7 385.2L827.6 384L827.3 382.1L828.8 381.4L829.1 378.5L827.1 375.7L828.8 375.1L834.3 375.1L844.5 374.8ZM631.7 231.7L631.6 233L631.6 240.6L615.2 240.3L615.3 253.1L610.6 253.6L609.4 256.1L610.4 263.4L590.8 263.3L589.7 265L589.9 262.9L601.2 262.5L601.8 260.7L603.9 258.4L605.5 251.5L612.5 246.1L614.8 239.8L616.4 239.5L618 235.6L622.2 235L624.1 235.7L626.3 235.7L627.9 234.6L631 234.4L630.9 231.7L631.7 231.7ZM60.8 125L50.4 120.1L46.9 117.9L37.8 115.8L35 111.4L35.7 108.4L29.4 106.2L28.5 102.2L22.4 98.6L22.3 96L25.1 93.6L25 90.4L16.5 87.2L11.3 81.5L8.2 77.9L3.6 75.7L0.3 73.6L-2.4 71.1L-7.4 72.7L-12.3 75.5L-16.7 72.2L-20.2 70L-25.1 68.6L-30 68.5L-30 40L-29.9 21.4L-20.6 22.6L-12.7 25L-7.5 25.5L-3.1 23.4L2.9 21.9L10.4 22.5L17.8 20.3L26 19L29.5 21.1L33.2 19.9L34.3 17.6L37.8 18.1L46.2 22.6L52.9 19.2L53.6 23L59.7 22.2L61.6 20.7L67.6 21L75.3 23.1L87 24.9L93.9 25.8L98.8 25.5L105.5 28L98.5 30.5L107.5 31.6L121 31L125.3 30.1L130.6 33.1L136 30.6L130.9 28.4L134.2 26.7L140.3 26.5L144.2 26L148.3 27.2L153.3 29.9L158.9 29.5L167.7 31.8L175.5 31L182.8 31.1L182.2 28L186.7 27.1L194.4 28.8L194.4 33.5L197.6 29.5L201.6 29.7L203.8 24.7L198.5 21.6L192.6 19.6L193 14L199 10.4L205.6 11.2L210.6 13.4L217.4 19L213 21.5L222.3 22.5L222.2 27.6L228.9 23.7L234.9 26.9L233.4 30.6L238.2 34L243.5 30.4L247.1 26.1L247.4 20.6L254.5 21L261.9 21.7L268.6 24.2L268.9 26.7L265.2 29.3L268.7 32L268.1 34.4L258.3 37.9L251.3 38.7L246.2 37.2L244.7 39.7L239.8 43.9L238.4 46.1L232.6 49.5L225.4 49.8L221.5 51.9L221.1 55.2L215.3 55.8L209.2 59.9L203.8 65.5L201.9 69.4L201.6 75.3L208.9 76.1L211.2 80.8L213.5 84.6L220.5 83.6L229.8 85.7L234.8 87.6L238.4 90L244.6 91.4L249.9 93.5L258.2 93.8L263.6 94.3L262.8 98.6L264.4 103.6L268 109.2L275.4 114L279.3 112.3L282 107.2L279.4 99.3L275.9 96.7L283.9 94.3L289.5 90.8L292.3 87.3L291.9 84L288.5 79.7L282.4 76L288.3 70.7L286.1 66.2L284.5 58.4L287.9 57.2L296.5 58.6L301.7 59.1L305.8 57.8L310.5 59.5L316.6 62.4L318.1 64.3L327 64.7L326.9 68.9L328.6 75.2L333.1 76L336.8 78.9L344 76.2L348.8 70.6L352.1 68.3L356 72.8L362.5 79.2L368 85.2L366 88.3L372.7 91.1L377.2 94L385.1 95.3L388.3 96.9L390.3 101.1L394.2 101.8L396.2 103.6L396.6 109.3L393 111.1L389.4 112.9L381.1 114.7L374.8 118.8L366.4 119.6L355.7 118.5L348.2 118.5L343 118.9L338.8 122.4L332.4 124.7L325.2 131.3L319.5 135.9L323.7 135.1L331.8 128.5L342.2 124.3L349.7 123.8L354.1 126.3L349.4 129.6L351 135L352.6 138.8L359.1 141.3L367.4 140.6L372.4 135L372.8 138.6L376 140.4L369.8 143.7L358.7 146.6L353.8 148.7L348.2 152.3L344.4 151.9L344.2 147.7L352.9 143.5L344.9 143.7L339.3 144.3L336 141.5L336 134.7L333.8 133.2L330.5 134.1L328.8 132.8L325 136.5L323.5 140.4L321.7 142.7L319.6 143.5L318 143.7L317.5 145L308.3 145L300.7 145L298.4 145.9L293.1 149.5L292.5 149.9L290.9 151.9L286.3 151.9L281.4 151.9L279.1 152.7L280 153.6L280.4 155.2L273.8 158.2L268.6 159L262.8 161.6L261.5 161.6L259.9 160.8L259.3 160.1L260.5 157.9L262.8 155.1L264.3 152.1L263.3 147.8L262.2 143.3L257 140.9L257.7 140L256.9 139.4L255.5 139.4L254.5 138.6L254.3 137.4L253.3 138L252 137.8L251.1 136.8L250.6 135.5L246.7 133.9L242.7 132.2L237.8 130.3L233.1 128.5L228.6 129.9L227 130L220.9 128.6L216.8 129.3L212 127.7L206.8 127L203.4 126.6L201.8 125.8L200.9 123.1L199.2 123.1L199.2 125L188.9 125L171.7 125L154.8 125L139.8 125L124.8 125L110 125L94.8 125L89.8 125L75 125L60.8 125ZM255 57.7L258.7 55.4L265.6 55.5L265.5 56.4L259.7 59.2L256.1 59.1L255 57.7ZM276.1 6L270.6 3.3L270.8 1.5L273.2 1.2L284.7 1.7L293.3 4.5L293.7 5.9L288.4 5.7L283 5.6L277.6 6.3L276.1 6ZM273.4 59.6L275.4 58.1L277.4 58.2L278.7 59.2L276.7 61.8L274.5 61.4L273.2 59.9L273.4 59.6ZM206.9 -4.9L204.2 -3L197 -3.3L190.9 -4.6L193.6 -6.9L200.7 -8.2L205.1 -6.5L206.9 -4.9ZM205.8 -17.6L203.5 -17.5L194.2 -17.8L192.8 -19.2L202.9 -19.1L206.4 -18.2L205.8 -17.6ZM191.2 -23.8L197.2 -22.1L195.8 -20.3L188.5 -19.3L184.4 -20.4L182.2 -22.3L181.8 -24.4L188.3 -24.2L191.2 -23.8ZM234.2 -2L226.2 -2.6L212.9 -4.2L211.2 -6.9L210.6 -9.4L205.5 -11.6L195.2 -12.2L189.4 -13.8L191.3 -15.8L201.6 -15.5L207.1 -13.9L217 -13.9L221.3 -12.2L220.2 -10.4L225.9 -9.2L229.1 -8.1L235.8 -7.8L243.1 -7.4L251.1 -8.5L261.2 -8.9L269.4 -8.6L274.7 -6.7L275.8 -4.6L272.7 -3.3L265.3 -2.2L258.9 -2.8L244.5 -2.1L234.2 -2ZM118.7 -20.8L125.7 -20L124.1 -18.5L114.7 -17L107.3 -18.7L111.4 -20.3L118.7 -20.8ZM120.2 -24L126.7 -23L120.6 -22L112.3 -22L112.4 -22.8L117.5 -24.2L120.2 -24ZM397 113.4L394.3 116.6L391 120.9L394.3 119.2L397.6 120.3L395.9 122.1L400.3 123.4L402.6 122.2L407.6 123.8L406.1 127.4L409.6 126.6L410.2 129.2L411.8 132.3L409.7 136.7L407.4 136.9L404.1 136L405.2 131.9L403.8 131.2L398 135.6L395 135.4L398.5 133.1L393.7 131.8L388.4 132.1L378.7 132L377.9 130.5L381 128.7L378.8 127.4L383 124.4L388.2 116.4L391.3 113.6L395.6 111.8L398 112.1L397 113.4ZM255.6 44.5L261.1 46.2L266.8 47.7L267.2 50.1L270.9 49.7L274.5 51.4L270 52.9L262.3 51.7L259.5 49.5L254.5 52.2L247.4 54.7L245.7 51.8L238.9 52.3L243.2 49.8L243.9 45.9L245.6 41.3L249.2 41.7L250.1 43.9L252.7 43.1L255.6 44.5ZM281.1 8.2L285.9 6.3L297 8.8L303.9 11.2L304.5 13.3L313.8 12.2L319 15.4L331.1 17.4L335.4 19.4L340.2 24.1L331 26.4L342.8 29.7L350.7 30.8L357.9 35.4L365.7 35.7L364.2 39.2L355.4 45L349.3 42.9L341.4 38.1L334.9 38.7L334.3 41.6L339.6 44.5L346.3 46.8L348.4 48.1L351.7 53L349.9 56.6L343.6 55.3L331.1 51.3L338.2 55.6L343.4 58.6L344.2 60.3L330.6 58.3L319.9 55.4L313.8 53L315.6 51.6L308.1 49L300.8 46.6L300.9 48.1L286.5 48.9L282.2 47.1L285.5 43.5L294.9 43.4L305.2 42.7L303.5 40.9L305.3 38.4L311.7 33.6L310.4 31.4L308.4 29.7L300.8 27.2L290.7 25.5L293.9 24.3L288.6 21.2L284.2 20.9L280.2 19.2L277.5 20.6L268.5 21.3L250.3 20.2L239.7 18.7L231.6 17.9L227.4 16.2L232.7 13.9L225.6 13.9L224 8.8L227.8 4.4L233 2.3L245.9 1L242.2 4.2L246.1 7.3L250.7 3.3L263.4 1.2L272 6.4L271.3 9.7L281.1 8.2ZM202.5 -0.7L212.9 -0.5L222.5 0.7L215 5.2L209 6.1L203.7 9.9L198 9.7L194.8 5.3L194.9 2.8L197.5 0.7L202.5 -0.7ZM60.7 -10.6L69.2 -14.3L79.5 -17.6L87.1 -17.5L94 -18.2L93.3 -14.4L89.5 -12.7L84.8 -12.4L75.5 -10.3L67.5 -9.5L60.7 -10.6ZM11.4 99.8L16.3 99.4L14.8 105.1L19.1 109.1L17.1 109.1L14.1 106.8L12.3 104.5L9.7 102.9L8.8 100.7L9.1 99.2L11.4 99.8ZM147.5 -26.5L157.4 -25.8L170.9 -24L174.7 -21.6L176.6 -19.5L168.5 -20.1L160.3 -21.7L149.1 -21.9L153.9 -23.4L147.9 -24.6L147.5 -26.5ZM57.4 127.4L54.9 128.1L46.7 125.9L45.2 124.1L40.7 122.4L39.9 120.9L34.7 120L32.8 117.3L33.2 116.1L38.5 117.2L41.5 118L46.2 118.5L47.9 120.2L50.4 122.6L55.4 124.7L57.4 127.4ZM67.3 -2.2L74.5 -1.2L87.2 -0.9L92.1 0.5L97.4 2.6L91.2 3.9L78.9 7.4L72.7 10.9L72.7 13.1L59.5 15.5L56.9 13.3L45.4 10.7L47.5 8.5L51 4.9L55.3 1.6L50.4 -1.5L67.3 -2.2ZM135.9 -9.2L140.4 -10.1L145.6 -9.8L146.5 -7.4L143.4 -5L126.5 -4.2L113.9 -2.1L106.3 -2L105.6 -3.6L116 -5.8L93.4 -5.2L86.4 -6.1L93.3 -11L98 -12.4L112 -10.7L120.9 -7.7L129.7 -7.4L122.5 -12.1L127.1 -14L132.3 -13.4L133.9 -11L135.9 -9.2ZM142.4 4.6L148 6.6L151.1 11.5L152.7 15L161.1 17.5L170.1 19.9L169.6 22.1L161.3 22.5L164.5 24.4L162.8 26.2L153.8 25.5L145.2 24.1L139.4 24.4L130 26.1L117.3 26.8L108.4 27.3L105.7 25L98.9 23.6L94.5 24.2L88.3 20.2L91.6 19.7L99.3 18.8L106.4 19L112.9 18.2L103.3 17L92.6 17.4L85.5 17.3L82.8 15.5L94.4 13.5L86.7 13.5L78 12.2L82.2 8.5L85.7 6.5L99.1 3.4L104.2 4.4L101.7 6.7L112.8 5.2L119.7 7.7L125.4 5.2L130 6.8L134.1 11.7L136.6 9.7L133 4.6L137.4 3.8L142.4 4.6ZM172.8 6.5L167.3 3.2L173.2 0.8L179.2 1.8L188.1 1.2L189.4 2.7L184.7 5L192.3 7.2L191.4 11.7L183.2 13.6L178.4 13.2L174.9 11.3L162.5 7.4L162.6 5.9L172.8 6.5ZM142 2L148.7 1.8L152.5 2.9L148.1 6.2L140.3 2.7L142 2ZM182.5 -13.6L186.3 -11.3L186.5 -8.7L184.2 -5L176 -4.5L170.6 -5.3L170.7 -8.2L162.5 -7.8L162.2 -11.7L167.6 -11.5L175.1 -13.2L182.1 -12.9L182.5 -13.6ZM194.9 -33L198.4 -34.5L203.5 -34.9L201.3 -36L213 -36.3L219.3 -33.6L227.7 -32.5L236 -31.6L239.9 -28.3L245.9 -26.7L239.1 -25.2L229.8 -21.4L221 -21.1L210.6 -21.7L205.2 -23.8L205.3 -25.6L209.3 -26.9L200.1 -26.9L194.6 -28.5L191.5 -30.8L194.9 -33ZM217.1 -39.5L224.5 -40.4L230.3 -40.6L240.1 -41.4L247.5 -43.3L253.7 -43L259.1 -41.6L262.9 -44.3L269.5 -45.1L278.5 -45.7L293.8 -45.9L296.4 -45.3L310.8 -46.2L321.7 -45.8L332.5 -45.5L345.9 -45.1L356.6 -44.5L365.8 -43.1L365.5 -41.8L353.3 -39.6L341.2 -38.6L336.7 -37.5L347.6 -37.5L335.8 -34.5L327.7 -33.1L319.1 -29L308.8 -28.2L305.6 -27.2L290.5 -26.6L297.4 -26L293.9 -25.1L298 -22.6L293.3 -20.9L285.6 -19.5L283.2 -17.5L276.2 -16L276.9 -14.9L285.4 -15.1L285.6 -13.9L272.2 -10.9L259.1 -12.3L244.4 -11.5L237 -12.1L227.5 -12.4L226.9 -14.8L236.2 -15.9L233.7 -19.5L236.7 -19.9L250.1 -17.7L243.3 -20.9L235.2 -21.9L239.2 -23.8L248.1 -25L249.5 -26.7L242.5 -28.7L240.3 -31.3L254 -31L258 -30.5L265.8 -32.3L254.5 -32.9L237 -32.6L228.2 -34.3L224 -36.3L218.2 -37.8L217.1 -39.5ZM298.9 32.8L295.7 34.3L290.1 34.5L288.8 32.1L290.9 29.3L295.5 28.6L299.4 29.9L299.5 32.1L298.9 32.8ZM193.7 22.5L196.8 24.5L193.7 26.2L186.9 24.7L182.8 25.2L176 23L180.4 21.4L183.9 19.3L189.2 20.7L192.2 21.6L193.7 22.5ZM352.4 120.6L354.1 120.2L360.7 121.5L365.8 123.6L366 124.5L363.5 124.6L357.1 123L352.4 120.6ZM354.9 134.8L356.7 137.2L360.3 137.9L364.9 137.8L362.5 139.8L360.6 140.2L354.3 138L353 136.4L354.9 134.8ZM60.8 125L75 125L89.8 125L94.8 125L110 125L124.8 125L139.8 125L154.8 125L171.7 125L188.9 125L199.2 125L199.2 123.1L200.9 123.1L201.8 125.8L203.4 126.6L206.8 127L212 127.7L216.8 129.3L220.9 128.6L227 130L228.6 129.9L233.1 128.5L237.8 130.3L242.7 132.2L246.7 133.9L250.6 135.5L251.1 136.8L252.3 137.3L253.3 138L254.3 137.4L254.5 138.6L255.5 139.4L256.9 139.4L257.7 140L257 140.9L262.2 143.3L263.3 147.8L264.3 152.1L262.8 155.1L260.5 157.9L259.4 159.6L259.9 160.8L261.5 161.6L262.8 161.6L268.6 159L273.8 158.2L280.3 155.7L280 153.6L279.1 152.7L281.4 151.9L286.3 151.9L290.9 151.9L292.5 149.9L293.1 149.5L298.4 145.9L300.7 145L308.3 145L317.5 145L318 143.7L319.6 143.5L321.7 142.7L323.5 140.4L325 136.5L328.8 132.8L330.5 134.1L333.8 133.2L336 134.7L336 141.5L339.3 144.3L340.2 146L334.8 148.4L329.7 150.1L324.4 151.6L321.8 154.5L320.9 155.7L320.9 158.3L322.5 161L324.6 161.1L324.1 159.3L325.6 160.4L325.2 161.8L321.8 162.6L319.4 162.5L315.7 163.4L313.5 163.6L310.6 163.9L306.5 165.3L313.8 164.4L315.3 165.4L308.3 166.9L305.1 166.9L303.7 167.6L305.2 167.9L304.1 171.5L300.5 175.3L300.1 174L299 173.8L297.4 172.5L298.4 175.2L299.6 176.1L299.7 178L298.1 179.9L295.3 183.9L296.4 180.3L293.8 178.4L293.3 174.3L292.3 176.4L293.4 179.6L290.1 178.8L293.5 180.4L293.7 185.2L295.1 185.5L295.7 187.2L296.4 192.2L293.2 196L288 197.4L284.7 200.4L282.2 200.7L279.7 202.5L279 204.2L273.5 207.5L270.7 209.8L268.3 212.8L267.5 216.4L268.4 219.8L270.1 224.1L272.3 227.6L272.3 229.8L274.7 235.6L274.6 239L274.3 240.9L273.1 244L271.6 244.6L269.1 244L268.4 241.8L266.5 240.7L263.8 236.4L261.5 232.5L260.7 230.6L261.8 227.3L260.3 224.5L256.5 220.3L254.5 219.6L249.5 221.8L248.6 221.6L246.1 219.2L243 218L237.3 218.6L232.9 218.1L229.1 218.4L227 219.2L227.9 220.5L227.8 222.6L228.9 223.5L228 224.2L226.1 223.5L224.2 224.4L220.6 224.3L216.9 221.6L212.5 222.2L208.9 221.1L205.8 221.4L201.6 222.6L197 226.3L192 228.5L189.3 230.9L188.1 233.1L188.1 236.6L188.4 239L189.3 240.7L187.4 240.8L183.8 239.7L179.9 238.2L178.5 235.8L177.4 232.3L174.5 229.5L172.7 226.5L170.2 223.1L166.7 221.1L162.6 221.2L159.5 225.2L155.3 223.7L152.7 222.1L151.5 219.4L149.8 216.8L146.8 214.6L144.3 213L142.5 211.2L133.8 211.2L133.8 213.3L129.8 213.3L119.9 213.3L108.5 209.8L100.9 207.4L101.4 206.4L95 206.9L89.4 207.3L88.5 204.8L85.3 201.9L82.9 201.3L82.4 199.9L79.6 199.6L77.8 198.3L73.2 197.8L71.9 197L71.3 194.2L66.4 189.2L62.3 182.2L62.4 181.1L60.2 179.4L56.4 175.2L55.7 171.2L53 168.4L54.1 164.3L53.9 160L52.3 156.2L54.3 151.5L54.9 146.9L55.5 142.4L54.6 135.7L53 131.4L51.6 129.1L52.2 128.1L59.4 129.8L62.1 134.5L63.3 133.2L62.5 129.1L60.8 125ZM-29.9 21.4L-30 40L-30 68.5L-25.1 68.6L-20.2 70L-16.7 72.2L-12.3 75.5L-7.4 72.7L-2.4 71.1L0.3 73.6L3.6 75.7L8.2 77.9L11.3 81.5L16.5 87.2L25 90.4L25.1 93.6L22.3 96L19.6 94.1L15.2 92.5L13.7 88.2L7.3 84.1L4.6 79.4L-0.2 79.1L-8.1 78.9L-14 77.5L-24.3 72.3L-29.1 71.4L-37.9 69.6L-44.8 70L-54.6 67.7L-60.6 65.6L-66.1 66.6L-65.1 70.1L-67.9 70.4L-73.6 71.5L-78 73.2L-83.6 74.2L-84.3 71.3L-82 66.4L-76.7 64.8L-78.1 63.6L-84.5 66.4L-87.9 69.7L-95.1 73.2L-91.4 75.7L-96.2 79.3L-101.5 81.4L-106.5 82.9L-107.8 85.1L-115.6 87.7L-117.2 90L-123 92.2L-126.4 91.8L-131.1 93.2L-136.2 94.9L-140.3 96.6L-148.9 98L-149.7 97.1L-144.2 94.8L-139.4 93.3L-134 90.5L-127.8 90L-125.4 87.9L-118.4 84.9L-117.3 83.9L-113.6 82.1L-112.8 78.4L-110.2 75.4L-116 76.9L-117.6 76.1L-120.3 77.9L-123.6 75.3L-124.9 77.1L-126.8 74.6L-131.8 76.6L-134.8 76.6L-135.3 73.7L-134.4 71.8L-137.6 70.1L-144.1 71L-148.3 68.7L-151.7 67.5L-151.8 64.6L-155.6 62.5L-153.7 59.6L-149.6 56.8L-147.8 54.3L-143.8 53.9L-140.3 54.7L-136.3 52.3L-132.7 52.7L-128.9 51.2L-129.8 48.9L-132.6 48L-128.9 46.1L-132 46.1L-137.3 47.2L-138.8 48.3L-142.7 47.2L-149.8 47.8L-157.1 46.6L-159.2 44.6L-165.6 41.7L-158.5 39.6L-147.4 37.1L-143.3 37.1L-143.9 39.6L-133.4 39.4L-137.4 36.3L-143.6 34.4L-147.2 31.9L-152 29.8L-158.8 28.2L-156 25.6L-147.2 25.4L-140.8 23.1L-139.7 20.7L-134.5 18.3L-129.7 17.8L-120.2 15.5L-115.6 15.9L-107.9 13.2L-100.3 14.3L-96.7 16.5L-94.5 15.6L-86.1 15.9L-86.4 17L-78.7 17.8L-73.6 17.3L-63.1 18.9L-53.4 19.4L-49.6 20.1L-42.9 19.2L-35.4 20.7L-29.9 21.4L-29.9 21.4ZM1111.8 123.9L1108 127.3L1103.8 127.7L1103.6 132.7L1100.8 135L1090.9 133.3L1087.3 142.3L1084.7 143.4L1074.8 145.4L1079.3 154.1L1075.9 155.4L1076.3 158.3L1073.2 157.5L1070.7 155.7L1063.3 155.2L1055 155.1L1053.2 155.6L1046.1 153.5L1043.2 154.5L1042.4 157.5L1034.2 155.8L1030.9 156.5L1029.8 158.7L1026.9 159.6L1020.4 163.1L1018.2 166.7L1016.3 166.7L1014.9 164.3L1008.6 164.2L1007.6 160.1L1005.1 160L1005.5 155L999.5 151.4L990.9 151.7L985.1 152.5L980.3 148L976.2 146.1L968.4 142.5L967.5 142.1L954.6 145L954.8 163.5L952.3 163.7L948.8 159.8L945.4 158.4L939.7 159.4L937.5 161.1L937.2 159.9L938.5 157.8L937.5 156L931.7 154.3L929.5 149.8L926.7 148.6L926.5 147L931.4 147.4L931.6 143.8L935.8 143L940.2 143.7L941.1 138.8L940.2 135.7L935.2 136L931 134.8L925.2 137L920.5 138L918 137.2L918.5 134.6L915.3 131.3L911.6 131.4L907.3 128L910.2 124.2L908.8 123.2L912.7 117.7L917.9 120.6L918.5 117L928.8 111.5L936.6 111.4L947.7 114.9L953.6 116.9L958.9 114.8L966.8 114.7L973.2 117.3L974.7 115.8L981.7 116L982.9 113.6L974.8 110.2L979.6 107.8L978.7 106.4L983.5 105.1L979.9 101.7L982.2 100L1000.9 98.2L1003.3 97L1015.8 95.1L1020.3 93.1L1029.3 94.2L1030.9 99.3L1036.1 98.1L1042.5 99.8L1042.1 102.6L1046.9 102.3L1059.5 97.5L1057.6 99.1L1064 103L1075.2 115.7L1077.8 113.1L1084.7 115.9L1091.9 114.7L1094.7 115.6L1097.1 118.4L1100.6 119.4L1102.7 121.5L1109.1 120.9L1111.8 123.9ZM954.8 163.5L954.6 145L967.5 142.1L968.4 142.5L976.2 146.1L980.3 148L985.1 152.5L990.9 151.7L999.5 151.4L1005.5 155L1005.1 160L1007.6 160.1L1008.6 164.2L1014.9 164.3L1016.3 166.7L1018.2 166.7L1020.4 163.1L1026.9 159.6L1029.8 158.7L1031.3 159.2L1027.1 162.4L1030.8 164.3L1034.4 163L1040.3 165.7L1033.9 169.3L1030.1 168.8L1028 168.9L1027.3 167.5L1028.3 165.2L1021.6 166.4L1020.1 169.6L1017.7 172.3L1013.5 172.1L1012.2 174.3L1015.9 175.5L1017 179.2L1014.2 184.3L1010.4 183.2L1007.6 183.2L1007.7 180.1L1001.1 178L995.9 175.5L992.6 173.2L986.9 169.7L984.4 164.6L982.7 163.7L977.3 163.9L975.4 162.9L974.9 158.9L968.1 156.2L963.9 159.1L959.7 160.9L960.5 163.4L954.8 163.5ZM386.9 521.1L385.6 525.1L384.3 530.2L384.3 535.2L383.3 536.3L382.9 539.5L382.5 542.2L388.9 546.4L388.2 549.9L391.3 552.1L391.1 554.5L386.3 560.9L378.8 563.6L368.8 564.6L363.3 564.1L364.4 567.1L363.3 570.9L364.3 573.4L361.3 575.1L356.1 575.8L351.3 574L349.4 575.3L350.1 580.3L353.5 581.8L356.2 580.2L357.7 582.8L353.1 584.4L349.1 587.5L348.4 592.5L347.2 595.2L342.5 595.2L338.5 597.8L337.1 601.5L342 605.2L346.8 606.2L345.1 610.7L339.2 613.5L335.9 619.3L331.4 621.3L329.3 623.7L330.9 628.9L334.3 631.7L332.1 631.5L327.5 630.7L315.4 630L313.4 627.1L313.5 623.4L310.1 623.7L308.4 621.9L307.9 616.6L311.8 614.4L313.3 611.2L312.8 608.7L315.4 604.4L317.2 597.8L316.7 594.9L318.9 593.9L318.4 592L316 591L317.7 588.9L315.4 587L314.3 581.3L316.3 580.3L315.4 574.2L316.6 569L317.9 564.6L320.9 562.8L319.4 557.9L319.4 553.3L323.2 550L323.1 545.8L325.9 541L325.9 536.4L324.6 535.5L322.3 526.8L325.4 521.7L324.9 516.8L326.7 512.3L330 507.6L333.5 504.5L332 502.5L333.1 500.9L332.9 492.6L338.4 490.1L340.1 484.9L339.5 483.7L343.6 479.2L350.2 480.4L353.1 484L355.1 480L360.8 480.2L361.6 481.2L370.8 489.4L374.9 490.2L381 493.9L386.1 495.8L386.8 498L381.9 505.6L387 507L392.6 507.7L396.5 506.9L401.1 503.1L401.9 498.7L404.3 497.7L406.9 500.6L406.8 504.6L402.5 507.4L399.2 509.4L393.5 514.3L386.9 521.1ZM327 457.9L329.5 461.3L330.2 464.9L332.8 467L331.2 471.9L333.9 477.5L335.9 484.4L339.5 483.7L340.1 484.9L338.4 490.1L332.9 492.6L333.1 500.9L332 502.5L333.5 504.5L330 507.6L326.7 512.3L324.9 516.8L325.4 521.7L322.3 526.8L324.6 535.5L325.9 536.4L325.9 541L323.1 545.8L323.2 550L319.4 553.3L319.4 557.9L320.9 562.8L317.9 564.6L316.6 569L315.4 574.2L316.3 580.3L314.3 581.3L315.4 587L317.7 588.9L316 591L318.4 592L318.9 593.9L316.7 594.9L317.2 597.8L315.4 604.4L312.8 608.7L313.3 611.2L311.8 614.4L307.9 616.6L308.4 621.9L310.1 623.7L313.5 623.4L313.4 627.1L315.4 630L327.5 630.7L332.1 631.5L327.7 631.5L325.3 632.7L320.8 634.5L320 639.2L317.9 639.3L312.2 637.7L306.5 634.2L300.3 631.3L298.7 628.1L300.1 625.2L297.6 621.9L297 613.4L299.1 608.6L304.4 604.7L296.8 603.2L301.5 598.8L303.2 590.5L308.8 592.3L311.4 581.9L308.1 580.6L306.5 586.8L303.3 586.1L304.9 579L306.6 569.7L308.9 566.3L307.5 561.4L307.1 555.8L309.2 555.6L312.2 547.5L315.7 539.5L317.8 532.1L316.7 524.6L318.1 520.5L317.6 514.3L320.5 508.2L321.4 498.5L323 488.1L324.5 477L324.2 468.8L323.1 461.7L325.7 460.5L327 457.9ZM821.7 392.5L822.6 397.1L822.1 399.7L823.1 402.6L826 405.4L828.7 411.7L826.7 411.2L820 412L818.7 412.6L817.2 415.8L818.4 418L817.5 423.9L816.9 429L818.2 429.9L821.7 431.8L823.1 430.9L823.5 436.3L819.7 436.2L817.6 433.5L815.8 431.4L811.9 430.7L810.8 428L807.8 429.6L803.8 428.9L802.1 426.7L798.9 426.2L796.6 426.3L796.3 424.8L794.6 424.6L792.3 424.3L789.2 425.1L787 425L785.8 425.4L786 419.5L784.4 417.6L784 414.5L784.7 411.5L783.7 409.6L783.6 406.5L777.6 406.5L778 404.7L775.5 404.7L775.2 405.6L772.1 405.8L770.8 408.7L770.1 409.9L767.3 409.2L765.7 409.9L762.4 410.3L760.4 407.7L759.3 406.1L757.9 403.1L756.6 399.4L741.9 399.3L740.1 399.9L738.7 399.8L736.6 400.5L735.9 398.9L737.2 398.4L737.3 396.2L738.2 395L740 393.9L741.3 394.4L743 392.5L745.7 392.6L746 394L747.9 394.9L750.9 391.7L753.8 389.3L755 387.7L754.9 383.6L757 378.7L759.3 376.1L762.6 373.7L763.2 372.1L763.3 370.3L764.1 368.6L763.9 365.7L764.5 361.3L765.5 358.2L767 355.5L767.3 352.5L767.7 349L769.7 346.5L772.3 344.8L776.5 346.5L779.6 348.4L783.3 348.9L787 349.9L788.5 346.8L789.2 346.4L791.5 347L797.1 344.5L799 345.5L800.6 345.4L801.4 344.1L803.3 343.7L807 344.2L810.2 344.4L811.9 343.8L814.9 348L817.1 348.6L818.5 347.7L820.8 348.1L823.6 347L824.8 349.1L829.2 352.5L828.9 358.3L830.9 359L829.3 360.8L827.3 362.1L825.4 364.7L824.4 367L824.1 371L822.9 372.9L822.9 376.7L821.5 378.1L821.3 381.1L820.6 381.5L820.1 384.2L821.4 386.5L821.7 392.5ZM882.9 378.4L880 374.3L879.9 356.1L884.3 350.4L885.6 348.8L888.8 348.7L893.3 345.2L899.8 345L913.9 330L917.4 325.8L919.7 322.7L919.7 320.1L919.7 315.1L919.7 313L921.3 312.8L923.6 312.1L926.3 311.6L928.7 309.9L930.6 309.9L930.7 311.3L930.2 314.2L930.2 316.8L929.2 318.6L927.8 324L925.4 329.6L922.3 336L918 343.3L913.7 348.9L907.8 355.7L902.8 359.8L895.3 364.7L890.7 368.5L885.2 374.6L884.1 377.2L882.9 378.4ZM871 393.4L863.8 388.4L863.5 385.5L845.4 375.3L844.5 374.8L844.5 369.5L845.9 367.4L848.4 364.1L850.2 360.5L848 354.7L847.4 352.2L845 348.8L848.1 345.8L851.5 342.5L854.1 343.3L854.1 346.1L855.8 347.8L859.3 347.8L865.6 352L867.2 352.1L868.4 351.9L869.5 352.5L872.8 352.9L874.3 350.8L878.8 348.7L880.9 350.4L884.3 350.4L879.9 356.1L880 374.3L882.9 378.4L879.4 380.4L878.2 382.5L876.3 382.9L875.6 386.4L874 388.4L873 391.7L871 393.4ZM797.8 328.9L794 326.7L792.3 325.2L792 323.7L792.8 321.6L792.8 319.6L789.9 316.4L789.3 314.3L789.4 313.1L787.5 311.6L787.5 308.7L786.4 306.8L784.7 307.1L785.2 305.2L786.5 303.1L785.9 301.1L787.6 299.5L786.5 298.4L787.8 295.3L790.1 291.6L794.4 291.9L794.2 272.1L794.3 270L800 270L800 260L820.1 260L839.5 260L859.3 260L860.9 264.9L859.8 265.8L860.6 271L862.4 276.9L864.3 278.2L867.1 280L864.5 282.9L860.8 283.7L859.3 285.2L858.8 288.5L856.6 295.9L857.1 297.9L856.4 302.2L854.3 307.1L851.3 309.6L849.2 313.4L848.7 315.4L846.3 316.8L844.8 322.1L844.9 326.6L844.8 322.7L844.2 320.1L843.6 318.4L841 316.4L840.4 312.8L841 309.1L838.7 308.8L838.4 309.9L835.4 310.1L836.6 311.6L837 314.6L834.3 317.3L831.8 320.9L829.2 321.5L825 318.5L823.1 319.6L822.6 321L820 322L819.8 323L814.9 323L814.2 322L810.6 321.8L808.8 322.7L807.4 322.2L804.8 319.3L804 317.9L800.3 318.6L799 320.9L797.7 325.4L796 326.4L794.4 326.9L797.8 328.9ZM794.2 272.1L794.4 291.9L790.1 291.6L787.8 295.3L786.5 298.4L787.6 299.5L785.9 301.1L786.5 303.1L785.2 305.2L784.7 307.1L786.4 306.8L787.5 308.7L787.5 311.6L789.4 313.1L789.3 314.3L786.2 315.1L783.6 317.2L780 322.6L775.3 324.9L770.5 324.6L769.1 325.1L769.6 326.8L766.9 328.6L764.8 330.5L758.5 332.5L757.3 331.3L756.5 331.2L755.5 332.5L751.4 332.9L752.2 331.5L750.6 328.1L749.9 326L747.7 325.2L744.8 322.3L745.9 319.9L748.1 320.4L749.5 320L752.3 320.1L749.6 315.5L749.8 312.2L749.5 308.9L747.5 305.7L748 303.3L744.8 303.2L744.8 300L742.7 298.2L744.9 291.6L751.2 286.9L751.5 280.4L753.4 270.2L754.5 268.1L752.4 266.3L752.4 264.8L750.5 263.5L749.3 255.7L754.3 253L774.2 262.5L794.2 272.1ZM316.4 271.4L316.9 274.2L316.5 276.1L315.3 276.9L316.6 278.4L316.5 279.8L313.1 278.9L310.8 279.3L307.7 278.9L305.4 279.8L302.7 278.3L303.2 276.7L307.8 277.4L311.5 277.8L313.3 276.7L311 274.5L311.1 272.6L307.9 271.8L309.1 270.4L312.1 270.6L316.4 271.4ZM316.5 279.8L316.6 278.4L315.3 276.9L316.5 276.1L316.9 274.2L316.4 271.4L317.1 270.6L321 270.6L323.9 271.9L325.2 271.8L326.2 273.5L328.9 273.4L328.7 274.9L331 275.1L333.4 276.9L331.6 279L329.2 277.9L326.9 278.1L325.2 277.9L324.3 278.8L322.4 279.1L321.7 277.9L320 278.6L318 282L316.7 281.2L316.5 279.8ZM920.5 138L918.2 141L913.4 141.8L908.4 147L913 151.7L912.5 155.1L917.9 161L914.9 163L914.1 164.2L911.9 163.9L908.4 160.9L907 160.7L903.9 159.5L902.4 157.5L897.7 156.4L894.7 157.2L893.8 156.3L887 153.9L879.6 153.1L875.4 152.2L874.8 152.8L868.4 148.6L862.7 146.7L858.4 143.8L862 143L866.2 138.8L863.4 136.8L870.7 134.8L870.6 133.7L866.1 134.5L866.3 132.3L868.9 130.9L873.7 130.5L874.5 128.8L873.4 126.1L875.4 123.5L875.3 122L868 120.4L865.1 120.4L862 118.1L858.1 118.9L851.8 117.1L851.9 116.1L850.1 114L846.1 113.7L845.7 112.2L847 111.2L843.8 108.3L838.6 108.8L837.1 108.6L835.8 109.7L833.9 109.5L832.7 106.3L831.5 104.6L832.5 104.2L836.5 104.3L838.5 103.2L837 101.9L833.7 101L834 100.1L831.9 99.2L828.8 95.9L829.9 94.6L829.4 92.2L824.5 91.1L821.9 91.6L821.1 90.4L815.9 89.2L814.3 86.2L813.9 83.8L811.4 82.6L813.6 81L812.1 76.4L815.7 73.5L814.9 72.6L820.6 69.9L815.4 67.5L826.1 61.1L830.7 58.2L832.6 55.7L825.2 52.2L827.2 49L822.7 45.3L826.1 41L820.3 35.3L824.9 31.5L817.2 28.2L818 24.7L822 24.2L830.5 22.2L835.7 20.5L843.9 23.5L857.6 24.7L876.5 30.3L880.3 32.7L880.6 36L875.1 38.7L866.9 40L844.6 36.2L840.9 36.8L849.1 40.5L849.4 42.8L849.7 47.9L856.2 49.5L860.1 50.8L860.7 48.3L857.7 46.2L860.9 44.3L873 47.4L877.2 46.2L873.8 42.5L885.5 37.6L890.1 37.9L894.7 39.7L897.7 36.2L893.5 33.2L895.9 30.2L892.3 27.1L906.3 28.8L909.1 31.6L902.8 32.2L902.8 34.9L906.7 36.7L914.5 35.6L915.7 32.4L926.1 30L943.6 25.7L947.4 26L942.4 29L948.6 29.5L952.2 27.8L961.6 27.7L969 25.6L974.7 28.6L980.4 25.3L975.2 22.4L977.8 20.8L992.5 22.3L999.4 23.8L1017.6 29.5L1020.9 26.9L1015.8 24.3L1015.7 23.2L1009.7 22.7L1011.3 20.4L1008.6 16.5L1008.5 14.9L1017.7 10.3L1021 5.8L1024.7 4.8L1037.9 6.1L1039 8.9L1034.2 13L1037.4 14.5L1039 18L1037.8 24.9L1043.3 28L1041.2 31.3L1031.4 38.4L1037.1 39.1L1039.1 37.3L1044.6 36.1L1045.9 33.6L1050.3 31.2L1047.3 28.4L1049.7 25.1L1044.2 24.6L1043 21.9L1047 16.8L1040.5 12.8L1049.5 9.4L1048.3 5.8L1050.8 5.7L1053.4 8.5L1051.4 13.3L1056.8 14.2L1054.5 10.6L1062.9 8.7L1073.3 8.4L1082.5 11.3L1078.1 7.1L1077.6 1.8L1086.3 0.8L1098.3 1L1109.1 0.3L1105 -2.3L1110.8 -5.6L1116.6 -5.7L1126.3 -8.2L1139.5 -8.9L1141.2 -10.2L1154.3 -10.7L1158.4 -9.6L1169.6 -12.2L1178.8 -12.2L1180.2 -14.3L1185 -16.4L1196.8 -18.5L1205.3 -16.9L1198.5 -15.6L1209.9 -14.9L1211.2 -12.4L1215.8 -13.6L1230.4 -13.5L1241.7 -11.1L1245.7 -9.2L1244.4 -6.6L1238.9 -5.2L1225.8 -2.4L1222 -0.9L1228.2 -0.2L1235.6 1.1L1240.1 0.1L1242.6 3.3L1244.8 2L1252.8 1.2L1268.9 2.1L1270.1 4.4L1291 5.1L1291.3 1.3L1301.9 2.2L1309.9 2.2L1318 4.8L1320.3 8L1317.3 10.1L1323.6 14L1331.4 16.1L1336.3 10.8L1344.3 13.1L1352.8 11.7L1362.5 13.3L1366.2 11.9L1374.3 12.6L1370.7 7.9L1377.3 5.8L1422.5 9L1426.8 12L1439.8 15.8L1460 14.8L1470 15.7L1474.2 17.7L1473.5 21.4L1479.7 22.8L1486.4 21.8L1495.3 21.7L1504.7 22.6L1514.2 22.1L1522.9 26.5L1529.1 24.9L1525 21.7L1527.3 19.5L1543.2 20.9L1553.6 20.6L1568 23L1575 25.2L1575 45.1L1568.5 47.3L1562.1 47L1566.6 49.6L1569.5 53.7L1571.9 55.1L1572.4 57.2L1571.1 58.5L1561.8 57.4L1547.8 61.2L1543.4 61.7L1535.7 65.2L1528.5 68.3L1526.7 70.6L1519.5 67.1L1506.5 71.1L1504.2 69.2L1499.4 71.3L1492.7 70.7L1491.1 73.9L1485.1 78.8L1485.3 80.8L1491 81.9L1490.3 89.2L1485.6 89.4L1483.5 93.6L1485.6 95.7L1476.8 98.3L1475.1 104L1467.7 105.2L1466.2 110.3L1458.9 114.9L1457.1 111.5L1455 104.2L1452.2 93.1L1454.6 86.2L1458.8 83.2L1459.1 80.8L1466.8 79.7L1475.8 73.4L1484.4 68.3L1493.3 64.3L1497.4 57.2L1491.3 57.7L1488.3 61.8L1475.6 67.3L1471.5 61.1L1458.6 62.8L1446.1 71.2L1450.2 74.3L1439.1 75.6L1431.3 76.1L1431.7 72.5L1423.9 71.7L1417.7 74.2L1402.4 73.3L1386 74.8L1369.8 84.6L1350.6 96.4L1358.5 97L1361 100.1L1365.8 101.2L1369 98.7L1374.5 99.1L1381.7 104.6L1381.9 108.8L1378 113.8L1377.6 119.8L1375.3 127.8L1367.8 135L1366.1 138.5L1359.3 144.3L1352.6 150.1L1349.3 153L1342.7 155.9L1339.5 156L1336.4 153.6L1329.7 157.2L1328.9 158.9L1328.2 158L1328.2 155.5L1330.7 155.4L1331.4 149.4L1330.1 145.2L1334.4 143.4L1340.5 144.3L1343.8 139.4L1345.6 133.9L1347.5 132.1L1350.1 127.6L1341.9 129.1L1337.5 131.1L1329.9 131L1327.9 126.4L1322 122.8L1313.3 121.2L1311.4 116.3L1309.7 113.2L1307.8 111.1L1304.7 106L1300.3 104.2L1292.9 102.7L1286.2 102.8L1280 103.7L1275.9 106.2L1278.6 107.4L1278.7 110.2L1275.9 111.8L1271.4 117.1L1271.4 119.3L1264.4 122.4L1258.4 120.6L1252.4 121L1249.8 119.3L1246.8 118.8L1239.5 122.3L1232.9 123.1L1228.3 124.3L1222 123.5L1217.4 123.6L1214.3 121L1209.4 118.6L1204.4 118L1198.1 118.6L1193.4 119.6L1186.3 117.4L1185.3 113.7L1179.4 112.4L1174.9 111.8L1169.3 109.8L1164.1 114.9L1166.2 117.9L1161.3 121.4L1154.1 120.1L1149.1 119.9L1145.7 117.6L1140.5 117.5L1136.2 116L1128.6 118.3L1119 122.6L1113.8 123.5L1111.8 123.9L1109.1 120.9L1102.7 121.5L1100.6 119.4L1097.1 118.4L1094.7 115.6L1091.9 114.7L1084.7 115.9L1077.8 113.1L1075.2 115.7L1064 103L1057.6 99.1L1059.5 97.5L1046.9 102.3L1042.1 102.6L1042.5 99.8L1036.1 98.1L1030.9 99.3L1029.3 94.2L1020.3 93.1L1015.8 95.1L1003.3 97L1000.9 98.2L982.2 100L979.9 101.7L983.5 105.1L978.7 106.4L979.6 107.8L974.8 110.2L982.9 113.6L981.7 116L974.7 115.8L973.2 117.3L966.8 114.7L958.9 114.8L953.6 116.9L947.7 114.9L936.6 111.4L928.8 111.5L918.5 117L917.9 120.6L912.7 117.7L908.8 123.2L910.2 124.2L907.3 128L911.6 131.4L915.3 131.3L918.5 134.6L918 137.2L920.5 138ZM899.2 -32.9L909 -33.9L916.6 -33.9L917.6 -32.6L920.5 -33.8L925.2 -34.6L932.6 -33.5L930.7 -32.7L924 -32.1L919.5 -31.7L918.8 -30.9L912.9 -30.1L907.5 -31.2L910.4 -32.8L899.2 -32.9ZM788.7 98.4L779.5 98.4L773.3 97.9L774.4 95.7L781.3 94L786.6 94.9L788.8 95.7L788.3 97.1L788.7 98.4ZM942.5 1.3L954.5 -3.1L953.2 -5.4L964.3 -8L980.9 -11.3L997.5 -12.2L1006.1 -14L1015.8 -14.7L1019.3 -12.7L1015.9 -11.2L998.2 -8.7L982.9 -6.3L967.4 -1.5L959.9 3.3L952.1 8.1L953.1 12.3L962.7 16.4L959.7 16.8L943.4 16.2L942.1 14L933 12.6L932.3 9.9L937.4 8.9L937.2 6.1L947.1 1.9L942.5 1.3ZM842.2 140.1L843.5 138.9L847.1 140L848.7 140.2L849.3 141.2L850.1 141.3L852.6 143L857.6 142.7L856.7 144.4L851.2 145.3L844.4 148.2L841.6 147.2L842.7 144.8L837.3 143.4L838.2 142.4L842.9 140.7L842.2 140.1ZM280.1 236.1L282.5 235.7L285.8 235.8L285.9 237.1L280.5 237.9L280.1 236.1ZM286 234.8L290 237.1L289.1 240.6L288.2 240L288.3 237.4L286.1 235.4L286 234.8ZM284 243.9L285.6 244.2L287.3 248.3L287.3 251.2L286.1 251.5L284.8 248.6L283 247.1L284 243.9ZM750.7 -28.4L752.6 -30.1L760 -30.3L766.3 -28.5L782.7 -24.8L770.1 -22.8L767.4 -19.1L763 -18.2L760.6 -14L754.6 -13.9L743.8 -16.9L748.3 -18.7L740.9 -20.1L731.1 -24.3L727.2 -28.3L740.9 -30.1L743.6 -28.3L750.7 -28.4ZM830.5 22.2L822 24.2L818 24.7L820.1 21.2L813.7 19.2L805.9 20.9L803.4 24.5L798.7 26.8L793.3 25.5L786.8 25.8L781.2 23.1L778.2 24.5L775.1 24.7L774.4 28L765 27.2L763.6 29.9L758.8 29.9L755.5 33.5L750.5 39L742.8 46.1L744.6 47.8L742.9 49.8L737.9 49.7L734.7 54.4L735 61L738.2 63.5L736.5 69.4L732.3 72.8L730.1 75.7L726.8 72.7L716.9 78.4L710.2 79.6L703.3 77.1L701.5 71.7L700 60.1L704.6 56.9L717.8 52.7L727.6 47.6L736.8 40.6L748.8 30.9L757.2 27.2L770.9 20.9L781.9 18.7L790.1 19L797.7 14.8L806.9 15.1L815.8 14.1L831.5 17.7L825 19.1L830.5 22.2ZM812 -30.3L804.6 -27.6L790.1 -27L775.4 -27.8L774.5 -29.2L767.3 -29.3L761.8 -31.6L777.3 -33L784.5 -31.8L789.6 -33.3L802.2 -32L812 -30.3ZM798.6 -19.3L787.5 -17.2L778.6 -18.4L782.1 -19.7L779.1 -21.3L789.4 -22.3L791.4 -20.4L798.6 -19.3ZM441.2 -43.1L458 -46.1L475.5 -45.9L481.9 -47.7L499.6 -48.2L539.5 -47.6L570.8 -43.6L561.5 -41.7L542.4 -41.5L515.5 -41L518 -40.1L535.7 -40.7L550.8 -38.9L560.5 -40.5L564.6 -38.7L559.2 -35.8L571.9 -37.6L596.2 -39.6L611.1 -38.6L614 -36.5L593.6 -32.9L590.8 -31.7L574.8 -30.9L586.3 -30.6L580.5 -27L576.5 -23.8L576.6 -18.2L582.6 -14.9L574.8 -14.7L566.6 -13.1L575.8 -10.5L577 -6.2L571.7 -5.8L578.1 -1.5L567 -1.1L572.8 0.9L571.2 2.7L564.1 3.5L557.2 3.5L563.4 6.9L563.5 9.1L553.6 7L551 8.3L557.8 9.6L564.3 12.7L566.2 16.7L557.3 17.6L553.5 15.7L547.3 12.8L549 16.2L543.2 18.9L556.4 19.1L563.3 19.4L549.9 23.7L536.3 27.6L521.6 29.4L516.1 29.4L510.9 31.3L504 36.6L493.2 40.1L489.8 40.3L483.1 41.5L475.9 42.7L471.7 45.8L471.6 49.3L469.1 52.6L460.9 56.6L462.9 60.5L460.7 64.6L458.1 69.5L451.1 69.8L443.7 65.7L433.7 65.7L428.8 63L425.5 58.1L416.8 51.9L414.3 48.6L413.6 44.1L406.7 39.5L408.5 35.8L405.2 34.1L410.1 28.2L417.6 26.4L419.6 24.3L420.6 20.4L414.9 22.1L412.2 22.9L407.7 23.6L401.6 21.9L401.2 18.6L403.2 15.9L407.8 15.8L418 17.2L409.5 14L405 12.3L400 13L395.8 11.7L401.4 7.1L398.4 5.2L394.4 1.8L388.4 -3.6L382 -5.5L382.1 -7.6L368.7 -10.5L358 -10.9L344.7 -10.7L332.5 -10.3L326.7 -11.9L318 -15L331.1 -16.6L341.2 -16.9L319.8 -18.2L308.5 -20.2L309.2 -22.2L328.1 -24.6L346.4 -27L348.4 -28.8L334.9 -30.6L339.2 -32.6L356.6 -36.1L363.8 -36.6L361.7 -38.9L373.6 -40.2L389 -41L404.3 -41L409.8 -39.4L423 -42.2L435 -40.3L442 -39.9L452.4 -38.3L440.5 -41L441.2 -43.1ZM756.7 512.9L759.1 510.4L761.1 511.8L761.9 513.9L764.2 514.3L767.3 515.2L770 514.9L774.5 512.3L774.5 493.8L775.8 494.6L778.8 499.3L778.3 502.4L779.4 504.1L783 503.6L785.5 501.4L787.9 499.9L789.1 497.5L791.6 496.3L793.7 497L796.1 498.4L800.1 498.6L803.3 497.4L803.8 495.9L804.7 493.5L807.4 493.1L808.9 491.2L810.6 487.9L815.1 484.1L822.2 480.5L824.2 480.5L826.6 481.4L828.3 480.8L831 481.3L833.4 488.3L834.7 491.8L833.8 497.4L834.2 499.2L831.7 498.3L830.2 498.7L829.7 500.1L828.4 502L828.4 503.7L831.4 506.4L834.3 505.9L835.4 503.7L839.2 503.7L837.9 507.4L837.3 511.5L836 513.8L832.6 516.3L831.6 517L829.5 519.5L828.1 522.1L825.3 525.7L819.6 530.9L816.1 533.9L812.3 536.1L807.1 538.1L804.5 538.3L803.9 539.7L800.9 539L798.4 539.9L793 539L789.9 539.6L787.9 539.3L782.7 541.3L778.4 542.1L775.4 544L773.1 544.1L771 542.3L769.3 542.2L767.1 540L766.9 540.7L766.2 539.3L766.3 536.4L764.6 533.1L766.2 532.1L766.1 528.3L762.8 523.6L760.3 519.4L756.7 512.9ZM819.9 514.8L817.7 513.2L815.4 514.3L812.7 516.2L810 519.4L813.7 523.2L815.5 522.7L816.5 521.1L819.2 520.4L820.1 518.7L821.6 516.3L819.9 514.8ZM819.9 514.8L821.6 516.3L820.1 518.7L819.2 520.4L816.5 521.1L815.5 522.7L813.7 523.2L810 519.4L812.7 516.2L815.4 514.3L817.7 513.2L819.9 514.8ZM89.4 207.3L95 206.9L101.4 206.4L100.9 207.4L108.5 209.8L119.9 213.3L129.8 213.3L133.8 213.3L133.8 211.2L142.5 211.2L144.3 213L146.8 214.6L149.8 216.8L151.5 219.4L152.7 222.1L155.3 223.7L159.5 225.2L162.6 221.2L166.7 221.1L170.2 223.1L172.7 226.5L174.5 229.5L177.4 232.3L178.5 235.8L179.9 238.2L183.8 239.7L187.4 240.8L189.3 240.7L187.4 245L186.5 248.6L186.1 255.3L185.6 257.8L186.5 260.5L188.1 262.9L189.1 266.8L192.4 270.5L193.5 273.4L195.5 275.9L200.8 277.2L202.9 279.3L207.3 277.9L211.1 277.4L214.8 276.5L218 275.6L221.1 273.6L222.3 270.7L222.7 266.5L223.6 265L227 263.7L232.3 262.5L236.7 262.7L239.7 262.3L240.9 263.3L240.8 265.8L238.1 268.7L236.9 271.8L237.8 272.6L237.1 274.8L235.8 278.7L234.5 277.4L233.5 277.5L232.5 277.6L230.8 280.6L229.9 280L229.3 281L224.7 280.9L220 280.9L220 283.7L217.7 283.7L219.6 285.4L221.4 286.6L222 287.6L222.8 287.9L222.7 289.7L216.3 289.7L213.9 293.7L214.6 294.7L214 295.8L213.9 297.3L208.2 291.9L205.6 290.3L201.5 289L198.7 289.4L194.7 291.2L192.2 291.7L188.7 290.4L184.9 289.5L180.3 287.2L176.5 286.5L170.9 284.1L166.7 281.8L165.4 280.4L162.6 280.1L157.5 278.5L155.4 276.3L150 273.4L147.5 270.3L146.3 267.8L148 267.3L147.5 265.9L148.6 264.6L148.7 262.9L147 260.6L146.5 258.7L144.9 256.1L140.5 251.2L135.4 247.3L133 244.1L128.7 242.1L127.8 240.9L128.5 237.8L126 236.6L123 234.2L121.8 230.7L119.1 230.3L116.2 227.7L113.9 225.2L113.6 223.7L111 219.9L109.2 216.1L109.3 214.1L105.6 212.2L104 212.4L101.1 211L100.3 213L101.1 215.4L101.6 219.2L103.3 221.2L107.1 224.7L107.9 225.9L108.6 226.2L109.3 227.9L110.2 227.9L111.2 231.1L112.7 232.4L113.8 234.1L116.9 236.7L118.6 241.3L120.1 243.5L121.4 245.9L121.7 248.5L124.1 248.7L126.1 250.9L128 253.2L127.8 254.1L125.7 255.9L124.8 255.9L123.5 252.8L120.3 250L116.6 247.6L114.1 246.3L114.3 242.6L113.5 239.9L111.1 238.4L107.7 236.2L107 236.8L105.8 235.5L102.7 234.3L99.7 231.4L102.1 231.3L104 229.4L104.2 227.2L100.3 223.6L97.4 222.2L95.6 219.1L93.7 215.8L91.4 211.8L89.4 207.3ZM386.9 521.1L390.1 520.5L395.1 524.4L397 524.3L402.1 527.5L406.1 530.2L409 533.6L406.7 536L408.1 538.8L406 542L400.3 544.8L396.6 543.8L393.9 544.3L389.3 542.2L385.9 542.3L382.9 539.5L383.3 536.3L384.3 535.2L384.3 530.2L385.6 525.1L386.9 521.1ZM408.1 538.8L406.7 536L409 533.6L406.1 530.2L402.1 527.5L397 524.3L395.1 524.4L390.1 520.5L386.9 521.1L393.5 514.3L399.2 509.4L402.5 507.4L406.8 504.6L406.9 500.6L404.3 497.7L401.9 498.7L402.9 495.8L403.5 492.9L403.5 490.1L401.7 489.2L399.9 490L398 489.8L397.4 487.9L396.9 483.3L396 481.8L392.6 480.4L390.6 481.4L385.3 480.5L385.6 473.7L384.2 470.9L385.7 469.8L385.3 467L386.6 464.8L387.5 460.9L386.3 457.8L383.6 456.4L383.1 454.4L383.8 451.5L374.2 451.3L372.3 445.5L373.7 445.4L373.7 443.2L372.7 441.8L372.5 438.9L369.6 437.4L366.4 437.4L364.4 436L361 435L359 433.1L353.4 432.3L348 427.8L348.4 424.5L347.8 422.6L348.3 418.8L341.8 419.7L339.1 421.5L334.8 423.6L333.6 425.1L331.1 425.2L327.4 424.8L324.5 425.6L322.3 425L322.6 417.5L318.5 420.4L314.1 420.3L312.2 417.6L308.9 417.3L309.9 415.2L307.1 412.1L305.1 407.6L306.4 406.7L306.4 404.6L309.4 403.1L308.9 400.4L310.2 398.7L310.5 396.4L316.3 393L320.4 392L321 391.3L325.5 391.5L327.8 377.8L327.9 375.6L327.1 372.7L324.9 370.9L324.9 367.3L327.7 366.5L328.7 367L328.9 365.1L326 364.6L325.9 361.4L335.7 361.5L337.3 359.8L338.7 361.4L339.7 364.3L340.6 363.7L343.4 366.4L347.3 366.1L348.2 364.5L351.9 363.4L354 362.5L354.6 360.4L358.2 359L357.9 357.9L353.7 357.5L353 354.4L353.2 351L350.9 349.7L351.9 349.3L355.6 349.9L359.5 351.1L361 350L364.6 349.2L370.2 347.3L372 345.4L371.3 344L373.9 343.8L375.1 344.9L374.4 347.1L376.2 347.9L377.3 350.2L375.9 352L375.1 356.2L376.4 358.8L376.8 361.1L379.8 363.4L382.3 363.7L382.9 362.7L384.4 362.5L386.7 361.6L388.3 360.3L391.1 360.7L392.3 360.5L395 360.9L395.5 359.9L394.6 358.9L395.1 357.4L397.2 357.9L399.5 357.4L402.4 358.4L404.6 359.5L406.1 358.1L407.2 358.3L407.9 359.7L410.3 359.4L412.2 357.5L413.8 353.8L416.7 349.2L418.4 349L419.7 351.7L422.5 360.5L425.1 361.3L425.3 364.8L421.5 368.9L423.1 370.4L431.9 371.2L432.1 376.2L435.9 372.9L442.2 374.7L450.5 377.8L452.9 380.7L452.1 383.5L457.9 381.9L467.6 384.6L475.1 384.4L482.5 388.5L488.9 394.1L492.7 395.5L497 395.7L498.8 397.3L500.5 403.7L501.4 406.7L499.4 415L496.8 418.2L489.8 425.2L486.6 430.9L482.9 435.2L481.6 435.3L480.2 439L480.6 448.3L479.2 456L478.7 459.3L477.1 461.3L476.2 468L471.1 474.5L470.3 479.7L466.2 481.9L465.1 484.9L459.6 484.8L451.8 486.8L448.2 489L442.6 490.4L436.8 494.4L432.5 499.4L431.8 503.1L432.6 505.9L431.7 510.9L430.6 513.4L427.1 516.1L421.5 524.9L417.1 528.9L413.7 531.2L411.4 536L408.1 538.8ZM327.4 424.8L331.1 425.2L333.6 425.1L334.8 423.6L339.1 421.5L341.8 419.7L348.3 418.8L347.8 422.6L348.4 424.5L348 427.8L353.4 432.3L359 433.1L361 435L364.4 436L366.4 437.4L369.6 437.4L372.5 438.9L372.7 441.8L373.7 443.2L373.7 445.4L372.3 445.5L374.2 451.3L383.8 451.5L383.1 454.4L383.6 456.4L386.3 457.8L387.5 460.9L386.6 464.8L385.3 467L385.7 469.8L384.2 470.9L384.1 469.3L379.4 466.8L374.8 466.7L366.1 468.2L363.7 472.6L363.5 475.3L361.6 481.2L360.8 480.2L355.1 480L353.1 484L350.2 480.4L343.6 479.2L339.5 483.7L335.9 484.4L333.9 477.5L331.2 471.9L332.8 467L330.2 464.9L329.5 461.3L327 457.9L330.2 452.5L328.1 448.3L329.2 446.6L328.3 444.8L330.3 442.3L330.4 438L330.6 434.5L331.7 432.8L327.4 424.8ZM325.5 391.5L321 391.3L320.4 392L316.3 393L310.5 396.4L310.2 398.7L308.9 400.4L309.4 403.1L306.4 404.6L306.4 406.7L305.1 407.6L307.1 412.1L309.9 415.2L308.9 417.3L312.2 417.6L314.1 420.3L318.5 420.4L322.6 417.5L322.3 425L324.5 425.6L327.4 424.8L331.7 432.8L330.6 434.5L330.4 438L330.3 442.3L328.3 444.8L329.2 446.6L328.1 448.3L330.2 452.5L327 457.9L325.7 460.5L323.1 461.7L318.1 458.9L317.7 456.8L307.8 451.8L298.8 446.3L295 443.2L292.9 439.1L293.7 437.7L289.5 431.1L284.5 421.9L279.8 411.9L277.8 409.7L276.2 406L272.3 402.7L268.8 400.7L270.4 398.5L267.9 393.7L269.5 390.2L273.5 387L274.1 389.1L272.7 390.3L272.8 392.1L274.9 391.7L276.9 392.3L279 394.8L281.8 392.7L282.7 389.4L285.8 385L291.8 383L297.3 377.8L298.8 374.6L298.1 370.8L299.5 370.3L302.8 372.7L304.4 375L306.7 376.3L309.6 381.5L313.4 382.2L316.1 380.8L317.9 381.7L320.9 381.3L324.8 383.6L321.5 388.7L323 388.8L325.5 391.5ZM340.6 363.7L339.7 364.3L338.7 361.4L337.3 359.8L335.7 361.5L325.9 361.4L326 364.6L328.9 365.1L328.7 367L327.7 366.5L324.9 367.3L324.9 370.9L327.1 372.7L327.9 375.6L327.8 377.8L325.5 391.5L323 388.8L321.5 388.7L324.8 383.6L320.9 381.3L317.9 381.7L316.1 380.8L313.4 382.2L309.6 381.5L306.7 376.3L304.4 375L302.8 372.7L299.5 370.3L298.1 370.8L296 369.6L293.5 367.9L292.1 368.7L287.9 368L286.7 365.9L285.7 366L280.7 363.1L280 361.5L281.9 361.2L281.7 358.7L282.9 356.9L285.3 356.5L287.4 353.4L289.4 350.8L287.5 349.6L288.5 346.7L287.3 342.1L288.4 340.8L287.6 336.5L285.6 333.9L286.2 331.5L287.8 331.8L288.8 330.3L287.6 327.4L288.2 326.6L290.8 326.8L294.6 323.3L296.6 322.8L296.7 321.1L297.6 316.9L300.5 314.6L303.6 314.5L304 313.4L307.9 313.9L311.9 311.3L313.8 310.2L316.2 307.8L318 308.1L319.3 309.4L318.3 311.1L315.1 312L313.9 314.5L311.9 315.9L310.5 317.7L309.9 321.3L308.5 324.2L311.1 324.6L311.7 326.9L312.8 328L313.2 330L312.6 331.8L312.8 332.9L314 333.3L315.2 335L321.6 334.6L324.5 335.2L328.1 339.5L330.1 339L333.7 339.2L336.5 338.7L338.3 339.5L337.4 342.2L336.3 343.9L335.9 347.5L336.9 350.8L338.3 352.3L338.5 353.4L336 355.9L337.8 357L339.1 358.7L340.6 363.7ZM288.2 326.6L287.6 327.4L288.8 330.3L287.8 331.8L286.2 331.5L285.6 333.9L283.9 332.4L282.9 329.7L284.1 328.4L282.8 328.1L281.9 326.4L279.4 325L277.2 325.3L276.2 327.1L274.2 328.3L273.1 328.5L272.6 329.5L275 332.3L273.6 332.9L272.9 333.6L270.6 333.9L269.7 330.9L269.1 331.8L267.4 331.5L266.4 329.5L264.3 329.1L263 328.5L260.9 328.5L260.7 329.6L260.2 328.9L260.4 327.9L260.9 326.9L260.7 326L261.4 325.4L260.4 324.6L260.3 322.6L262.3 322.2L264.1 324L264 325L266 325.2L267.8 326.1L270.3 325.7L272.4 324.4L275.4 323.4L277.1 321.9L279.9 322.2L282.5 322.9L284.7 323.8L286.4 325.3L288.2 326.6ZM262.3 322.2L260.3 322.6L260.4 324.6L261.4 325.4L260.7 326L260.9 326.9L260.4 327.9L260.2 328.9L257.5 327.8L256.4 326.7L257 325.8L256.8 324.7L255.5 323.5L253.5 322.6L251.8 321.9L251.4 320.5L250.1 319.6L250.4 321L249.4 322.2L248.3 320.8L246.7 320.3L246 319.3L246 317.8L246.7 316.2L245.3 315.5L246.4 314.6L247.2 313.9L250.5 315.2L251.6 314.6L253.2 315L254 316L255.5 316.4L256.7 315.3L258 318L259.9 320L262.3 322.2ZM256.7 315.3L255.5 316.4L254 316L253.2 315L251.6 314.6L250.5 315.2L247.2 313.9L246.4 314.6L244.7 313L242.4 311L241.3 309.3L239.2 307.7L236.7 305.5L237.2 304.7L238 305.4L240 304.9L240.6 303.7L241.3 303.7L241.2 301.2L242.4 301.1L243.4 301.1L244.5 299.8L246 300.8L246.5 300.2L247.4 299.6L249.2 298.2L249.3 297.2L250.4 296L251.8 296.7L252.8 296.9L253.9 296.3L255.1 296.3L256.9 295.6L257.6 294.9L259.3 295L258.6 296.6L259.1 298.4L257.9 300.1L257.4 302.2L257.2 304.4L257.5 305.7L257.6 307.9L256.9 308.4L256.4 310.5L256.7 311.9L255.7 313.1L256 314.5L256.7 315.3ZM259.3 295L257.6 294.9L256.9 295.6L255.1 296.3L253.9 296.3L252.8 296.9L251.8 296.7L250.9 295.9L249.7 297.2L249.2 298.2L247.4 299.6L246.5 300.2L246 300.8L244.5 299.8L243.4 301.1L242.4 301.1L241.2 301.2L241.3 303.7L240.6 303.7L240 304.9L238.4 305.1L237.6 303.5L236 303.1L236.4 301.1L235.7 300.5L234.7 300.2L232.5 300.8L230.8 299.3L229.7 298.3L228.2 297.9L229.3 296.6L228.9 295.6L229.2 294.7L231.6 293.3L233.9 291.4L235.5 290.7L236.9 290.6L238.2 290.8L240.5 291.2L242.8 291.1L244.4 290.5L245 290L246.6 290.2L247.8 290.6L249.1 290.5L250.1 290L252.4 290.7L253.2 290.8L254.7 291.8L256.1 292.9L257.9 293.6L259.3 295ZM228.2 297.9L229.7 298.3L230.8 299.3L232.3 300.1L234.7 300.2L235.7 300.5L236.4 301.1L236 303.1L235.5 304.3L232.6 304.2L230.8 303.7L228.7 302.7L225.9 302.4L224.5 301.3L224.7 300.6L226.4 299.3L227.3 298.8L228.2 297.9ZM213.9 297.3L214 295.8L214.6 294.7L213.9 293.7L216.3 289.7L222.7 289.7L222.8 287.9L222 287.6L221.4 286.6L219.6 285.4L217.7 283.7L220 283.7L220 280.9L224.7 280.9L229.3 281L229.2 284.9L228.9 290.6L230.3 290.6L232 291.5L232.4 290.7L233.9 291.4L231.6 293.3L229.2 294.7L228.9 295.6L229.3 296.6L228.2 297.9L227.1 298.2L226.4 299.3L224.7 300.6L224.5 301.3L222 300.5L218.8 300.4L216.6 299.4L213.9 297.3ZM229.3 281L229.2 280.2L230.8 280.6L232.5 277.6L233.5 277.5L233.5 278.2L234.5 278.3L234.4 279.6L233.6 281.8L234 282.6L233.5 284.3L233.2 287.3L232.2 288.7L231.3 288.8L230.3 290.6L228.9 290.6L229.2 284.9L229.3 281ZM371.3 344L372 345.4L370.2 347.3L364.6 349.2L361 350L359.5 351.1L355.6 349.9L351.9 349.3L350.9 349.7L353.2 351L353 354.4L353.7 357.5L357.9 357.9L358.2 359L354.6 360.4L354 362.5L351.9 363.4L348.2 364.5L347.3 366.1L343.4 366.4L340.6 363.7L339.1 358.7L337.8 357L336 355.9L338.5 353.4L338.3 352.3L336.9 350.8L335.9 347.5L336.3 343.9L337.4 342.2L338.3 339.5L336.5 338.7L333.7 339.2L330.1 339L328.1 339.5L324.5 335.2L321.6 334.6L315.2 335L314 333.3L312.8 332.9L312.6 331.8L313.2 330L312.8 328L311.7 326.9L311.1 324.6L308.5 324.2L309.9 321.3L310.5 317.7L311.9 315.9L313.9 314.5L315.1 312L318.3 311.1L318.2 312.3L315.3 312.9L316.9 315.2L316.8 317.8L314.6 320.7L316.5 324.6L318.7 324.3L319.8 320.7L318.2 318.9L318 315.2L324.2 313.1L323.5 310.8L325.3 309.2L327.1 312.7L330.6 312.8L333.8 315.6L334 317.2L338.5 317.3L343.9 316.8L346.7 319L350.5 319.6L353.4 318.1L353.4 316.8L359.6 316.5L365.6 316.4L361.3 317.9L363.1 320.3L367.1 320.6L370.8 323.1L371.6 327.1L374.2 327L376.2 328.2L372.2 331.1L371.8 332.9L373.5 334.8L372.3 335.7L369.2 336.5L369.3 338.8L367.9 340.2L371.3 344ZM392.3 360.5L391.1 360.7L388.3 360.3L386.7 361.6L384.4 362.5L382.9 362.7L382.3 363.7L379.8 363.4L376.8 361.1L376.4 358.8L375.1 356.2L375.9 352L377.3 350.2L376.2 347.9L374.4 347.1L375.1 344.9L373.9 343.8L371.3 344L367.9 340.2L369.3 338.8L369.2 336.5L372.3 335.7L373.5 334.8L371.8 332.9L372.2 331.1L376.2 328.2L379.5 330L382.6 333.3L382.7 335.8L384.6 336L387.3 338.4L389.3 340.1L388.5 344.6L385.4 345.9L385.7 347.1L384.8 349.7L387 353.3L388.6 353.3L389.2 356.2L392.3 360.5ZM402.4 358.4L399.5 357.4L397.2 357.9L395.1 357.4L394.6 358.9L395.5 359.9L395 360.9L392.3 360.5L389.2 356.2L388.6 353.3L387 353.3L384.8 349.7L385.7 347.1L385.4 345.9L388.5 344.6L389.3 340.1L395.3 341.1L395.8 340.2L399.8 339.9L405.2 341.2L402.6 345.5L403 348.9L405 351.9L404.1 354.1L403.7 356.3L402.4 358.4ZM416.7 349.2L413.8 353.8L412.2 357.5L410.3 359.4L407.9 359.7L407.2 358.3L406.1 358.1L404.6 359.5L402.4 358.4L403.7 356.3L404.1 354.1L405 351.9L403 348.9L402.6 345.5L405.2 341.2L406.9 341.8L410.6 343L415.9 347.2L416.7 349.2ZM705.9 122.7L708.3 124L715.5 124.9L713 128.3L712.3 131.9L711 132.8L708.7 132.3L708.8 133.6L705.2 136.4L705.1 138.6L707.5 137.9L709.2 140L709 141.5L710.5 143.3L708.7 144.9L710 148.7L712.7 149.4L712.2 151.5L707.6 154.4L697.8 153L690.5 154.6L689.9 157.6L684.1 158.3L678.5 156L676.7 157.1L667.5 154.8L665.5 152.9L668.1 149.9L669 139.9L663.9 134.7L660.2 132.1L652.5 130.2L652 126.6L658.5 125.5L666.9 126.8L665.3 121.1L670.1 123.3L681.7 119.4L683.2 115.3L687.6 114.3L688.3 116L690.6 116.1L692.9 118.1L696.4 120.5L699 120.1L703.4 122.4L704.5 122.8L705.9 122.7ZM718.7 156.9L722 155L722.8 159.2L721.1 163.1L718.9 162.1L717.7 158.7L718.7 156.9ZM298.1 370.8L298.8 374.6L297.3 377.8L291.8 383L285.8 385L282.7 389.4L281.8 392.7L279 394.8L276.9 392.3L274.9 391.7L272.8 392.1L272.7 390.3L274.1 389.1L273.5 387L276.1 383.3L275.1 381.1L273.2 383.4L270.2 381.2L271.2 379.8L270.3 375.3L272.1 374.5L273 371.4L274.9 368.2L274.5 366.2L277.3 365.1L280.7 363.1L285.7 366L286.7 365.9L287.9 368L292.1 368.7L293.5 367.9L296 369.6L298.1 370.8ZM343.6 277.4L346.1 277.9L347 278.9L345.8 280.1L342 280.1L339.1 280.3L338.8 278.1L339.5 277.4L343.6 277.4ZM287.2 277.5L290.5 278L293.2 279.2L294 280.6L290.5 280.7L289 281.5L286.2 280.7L283.3 278.9L283.9 277.7L286 277.4L287.2 277.5ZM263.7 254.1L268 254.4L271.9 254.5L276.6 256.2L278.6 258L283.3 257.4L285 258.6L289.3 261.7L292.4 264L294 263.9L297 264.9L296.6 266.3L300.3 266.5L304.1 268.6L303.5 269.7L300.2 270.4L296.8 270.6L293.4 270.2L286.2 270.7L289.6 267.9L287.5 266.6L284.3 266.3L282.6 264.9L281.4 262L278.6 262.2L273.9 260.9L272.4 259.8L265.9 259L264.2 258.1L266 256.8L261.1 256.6L257.5 259.2L255.5 259.2L254.7 260.4L252.3 261L250.1 260.5L252.8 259L253.8 257.2L256.1 256.1L258.7 255.1L262.4 254.6L263.7 254.1ZM831 481.3L828.3 480.8L826.6 481.4L824.2 480.5L822.2 480.5L819 478.2L815.1 477.4L813.6 474.3L813.6 472.5L811.5 472L805.8 466.5L804.3 463.6L803.2 462.7L801.3 458.7L806.9 459.2L808.5 459.8L810.2 459.7L813 456.5L817.3 452.3L819.1 451.9L819.7 450.2L822.6 448.2L826.4 447.5L826.7 449.4L830.9 449.3L833.2 450.4L834.3 451.6L836.6 452L839.2 453.6L839.2 459.9L838.3 463.4L838.1 467.1L838.9 468.6L838.3 471.5L837.5 472L836.2 475.6L831 481.3ZM822.2 480.5L815.1 484.1L810.6 487.9L808.9 491.2L807.4 493.1L804.7 493.5L803.8 495.9L803.3 497.4L800.1 498.6L796.1 498.4L793.7 497L791.6 496.3L789.1 497.5L787.9 499.9L785.5 501.4L783 503.6L779.4 504.1L778.3 502.4L778.8 499.3L775.8 494.6L774.5 493.8L774.5 479.2L779.4 479.1L779.6 461.3L783.3 461.1L791 459.3L792.9 461.4L796.1 459.4L797.6 459.4L800.4 458.3L801.3 458.7L803.2 462.7L804.3 463.6L805.8 466.5L811.5 472L813.6 472.5L813.6 474.3L815.1 477.4L819 478.2L822.2 480.5ZM774.5 493.8L774.5 512.3L770 514.9L767.3 515.2L764.2 514.3L761.9 513.9L761.1 511.8L759.1 510.4L756.7 512.9L753 509.1L751.1 505.5L749.9 500.6L748.7 497L747 489.3L746.9 483.3L746.3 480.6L744.3 478.5L741.8 474.4L739.1 468.4L738 465.2L734 460.3L733.7 456.5L736.1 455.6L739.1 454.7L742.3 454.9L745.3 457.1L746 456.8L766.3 456.5L769.8 458.9L781.9 459.7L791.1 457.6L795.2 456.5L798.4 456.8L800.4 457.9L797.6 459.4L796.1 459.4L792.9 461.4L791 459.3L783.3 461.1L779.6 461.3L779.4 479.1L774.5 479.2L774.5 493.8ZM591.4 302L589.4 298.1L586.9 296.4L589.1 295.4L591.5 291.9L592.7 289.3L594.4 287.7L596.9 288.2L599.3 287.1L602.1 287L604.5 288.5L607.8 289.8L610.8 293.5L614.1 296.9L614.4 300L615.4 302.9L617.2 304.3L617.7 306.2L617.4 307.8L616.7 308.1L614 307.7L612.5 308.3L608.9 307.1L606.5 307.1L597.3 306.9L595.9 307.4L594.3 307.3L591.6 308.1L590.8 304.2L595.3 304.3L596.5 303.6L597.4 303.6L599.3 302.5L601.4 303.5L603.6 303.6L605.8 302.5L604.8 301L603.1 301.9L601.6 301.8L599.6 300.6L598 300.7L596.9 301.9L591.4 302ZM617.4 307.8L617.7 306.2L617.2 304.3L615.4 302.9L614.4 300L614.1 296.9L615.8 296L616.7 293.1L618.3 292.9L621.7 294.3L624.6 293.3L626.5 293.7L627.2 292.6L647.3 292.5L648.4 289L647.6 288.4L645.1 266.8L642.7 245.2L650.4 245.1L667.2 256L684.1 266.9L685.3 269.3L688.4 270.7L690.7 271.5L690.8 274.7L696.3 274.2L696.4 285.7L693.6 289.1L693.2 292.2L688.7 293L681.9 293.4L680.1 295.2L676.9 295.4L673.7 295.4L672.4 294.4L669.7 295.1L665 297.2L664 298.8L660.2 301L659.5 302.3L657.4 303.3L655 302.6L653.6 303.9L652.9 307.3L648.9 311.4L649 313.1L647.6 315.2L648 318.1L645.9 318.9L644.7 319.5L644 317.4L642.5 317.9L641.7 317.8L640.7 319.3L636.9 319.3L635.5 318.5L634.9 319L633.3 317.5L633.6 316L633 315.5L631.9 315.9L632.1 314.3L633.1 313L631.1 310.9L630.5 309.6L629.4 308.5L628.4 308.3L627.2 309L625.5 309.7L624.2 310.8L622 310.4L620.6 309.1L619.8 308.9L618.5 309.6L617.7 309.6L617.4 307.8ZM589.7 265L590.8 263.3L610.4 263.4L609.4 256.1L610.6 253.6L615.3 253.1L615.2 240.3L631.6 240.6L631.6 233L650.4 245.1L642.7 245.2L645.1 266.8L647.6 288.4L648.4 289L647.3 292.5L627.2 292.6L626.5 293.7L624.6 293.3L621.7 294.3L618.3 292.9L616.7 293.1L615.8 296L614.1 296.9L610.8 293.5L607.8 289.8L604.5 288.5L602.1 287L599.3 287.1L596.9 288.2L594.4 287.7L592.7 289.3L592.3 286.6L593.6 284.2L594.3 279.5L593.7 274.5L593.1 272L593.6 269.5L592.3 267.2L589.7 265ZM688.5 338.7L684.3 339.3L683.1 335.8L683.3 324.4L682.3 323.3L682.1 320.9L680.4 319.1L678.9 317.6L679.5 315L681.2 314.4L682.2 312.3L684.7 311.8L685.8 310.3L687.5 308.8L689.2 308.8L693.1 311.7L692.9 313.4L694 316.3L693 318.3L693.5 319.7L691.1 322.8L689.6 324.3L688.6 327.5L688.7 330.6L688.5 338.7ZM749.3 255.7L750.5 263.5L752.4 264.8L752.4 266.3L754.5 268.1L753.4 270.2L751.5 280.4L751.2 286.9L744.9 291.6L742.7 298.2L744.8 300L744.8 303.2L748 303.3L747.5 305.7L746.1 306L745.9 307.6L745 307.7L741.6 302.2L740.4 302L736.5 304.8L732.6 303.4L729.9 303.1L728.5 303.8L725.6 303.6L722.6 305.7L720.1 305.9L714 303.3L711.7 304.5L709.1 304.4L707.2 302.5L702.2 300.7L696.8 301.3L695.5 302.3L694.8 305.2L693.4 307.2L693.1 311.7L689.2 308.8L687.5 308.8L685.8 310.3L685.9 306.9L680.1 305.7L680 303.3L677.1 300.1L676.5 297.8L676.9 295.4L680.1 295.2L681.9 293.4L688.7 293L693.2 292.2L693.6 289.1L696.4 285.7L696.3 274.2L703.4 272L717.9 262.2L735 252.6L742.9 254.8L745.7 257.5L749.3 255.7ZM688.5 338.7L688.7 330.6L688.6 327.5L689.6 324.3L691.1 322.8L693.5 319.7L693 318.3L694 316.3L692.9 313.4L693.1 311.7L693.4 307.2L694.8 305.2L695.5 302.3L696.8 301.3L702.2 300.7L707.2 302.5L709.1 304.4L711.7 304.5L714 303.3L720.1 305.9L722.6 305.7L725.6 303.6L728.5 303.8L729.9 303.1L732.6 303.4L736.5 304.8L740.4 302L741.6 302.2L745 307.7L745.9 307.6L747.9 309.6L747.3 310.5L747.1 312.1L742.9 316L741.5 319.2L740.8 321.8L739.8 322.9L738.8 326.4L736.1 328.5L735.3 331L734.2 333L733.7 335.1L730.3 336.8L727.5 334.7L725.6 334.8L722.6 337.7L721.2 337.8L718.8 342.6L717.5 346.1L712.3 347.9L710.4 347.7L708.5 348.8L704.5 348.7L701.8 345.6L700.2 341.9L696.6 338.6L692.9 338.7L688.5 338.7ZM747.5 305.7L749.5 308.9L749.8 312.2L749.6 315.5L752.3 320.1L749.5 320L748.1 320.4L745.9 319.9L744.8 322.3L747.7 325.2L749.9 326L750.6 328.1L752.2 331.5L751.4 332.9L748.9 338L747.7 338.9L747.3 342.7L747.8 344.8L747.4 346.3L749.8 348.9L750.2 350.7L752 353.3L754.3 354.9L754.5 357.2L755.1 358.7L754.7 361.4L750.7 360.2L746.7 358.9L740.4 358.7L736.8 359L733.8 358.4L731.4 358.7L723.2 358.6L724 354.6L722 351.3L719.7 350.5L718.7 348.2L717.4 347.5L717.5 346.1L718.8 342.6L721.2 337.8L722.6 337.7L725.6 334.8L727.5 334.7L730.3 336.8L733.7 335.1L734.2 333L735.3 331L736.1 328.5L738.8 326.4L739.8 322.9L740.8 321.8L741.5 319.2L742.9 316L747.1 312.1L747.3 310.5L747.9 309.6L745.9 307.6L746.1 306L747.5 305.7ZM679.5 315L678.9 317.6L680.4 319.1L682.1 320.9L682.3 323.3L683.3 324.4L683.1 335.8L684.3 339.3L680.3 340.4L679.2 338.6L677.9 335.4L677.5 332.9L678.6 328.4L677.3 326.6L676.8 322.7L676.8 319L674.8 316.5L675.1 314.9L679.5 315ZM675.1 314.9L674.8 316.5L676.8 319L676.8 322.7L677.3 326.6L678.6 328.4L677.5 332.9L677.9 335.4L679.2 338.6L680.3 340.4L672.5 343.3L669.7 345L665.2 346.4L660.7 345L660.9 343.1L658.8 338.7L660.1 333.1L662.2 328.9L660.9 321.8L660.2 318L660.3 315.2L669 315L671.2 315.3L672.8 314.5L675.1 314.9ZM634.9 319L635.5 318.5L636.9 319.3L640.7 319.3L641.7 317.8L642.5 317.9L644 317.4L644.7 319.5L645.9 318.9L648 318.1L650.2 319.2L651.1 320.9L653.3 321.9L655.1 320.7L657.4 320.5L660.9 321.8L662.2 328.9L660.1 333.1L658.8 338.7L660.9 343.1L660.7 345L658.4 345.1L655 344.1L651.8 344.2L645.8 345L642.4 346.5L637.4 348.3L636.4 348.2L636.8 344.1L637.3 343.4L637.1 341.5L635 339.4L633.4 339L632 337.7L633.1 335.4L632.6 333L632.8 331.6L633.6 331.6L633.9 329.4L633.5 328.4L634 327.7L635.8 327.1L634.6 323.1L633.5 321.1L633.9 319.4L634.9 319ZM606.5 307.1L608.9 307.1L612.5 308.3L613.6 308.2L616.7 308.1L617.4 307.8L617.7 309.6L618.5 309.6L619.8 308.9L620.6 309.1L622 310.4L624.2 310.8L625.5 309.7L627.2 309L628.4 308.3L629.4 308.5L630.5 309.6L631.1 310.9L633.1 313L632.1 314.3L631.9 315.9L633 315.5L633.6 316L633.3 317.5L634.9 319L633.9 319.4L633.5 321.1L634.6 323.1L635.8 327.1L634 327.7L633.5 328.4L633.9 329.4L633.6 331.6L632.8 331.6L631.4 331.4L630.4 333.5L629 333.4L628 332.4L628.3 330.4L626.2 327.3L624.9 327.9L623.8 328L622.5 328.3L622.5 326.4L621.7 325.1L621.9 323.7L620.8 321.6L619.4 319.8L615.4 319.8L614.2 320.7L612.9 320.8L612 321.9L611.4 323.3L608.8 325.5L606.6 322.5L604.6 320.6L603.3 319.9L602.1 318.9L601.5 316.7L600.8 315.6L599.3 314.8L601.6 312.4L603.1 312.5L604.4 311.6L605.5 311.6L606.3 310.9L605.9 309.3L606.4 308.8L606.5 307.1ZM591.6 308.1L594.3 307.3L595.9 307.4L597.3 306.9L606.5 307.1L606.4 308.8L605.9 309.3L606.3 310.9L605.5 311.6L604.4 311.6L603.1 312.5L601.6 312.4L599.3 314.8L596.7 312.7L594.6 312.4L593.4 311L593.5 310.2L591.9 309.1L591.6 308.1ZM632.8 331.6L632.6 333L633.1 335.4L632 337.7L633.4 339L635 339.4L637.1 341.5L637.3 343.4L636.8 344.1L636.4 348.2L635.1 348.2L630 345.8L625.4 342L621.2 339.3L617.8 336.1L619 334.5L619.3 333L621.5 330.3L623.8 328L624.9 327.9L626.2 327.3L628.3 330.4L628 332.4L629 333.4L630.4 333.5L631.4 331.4L632.8 331.6ZM608.8 325.5L611.4 323.3L612 321.9L612.9 320.8L614.2 320.7L615.4 319.8L619.4 319.8L620.8 321.6L621.9 323.7L621.7 325.1L622.5 326.4L622.5 328.3L623.8 328L621.5 330.3L619.3 333L619 334.5L617.8 336.1L616.5 335.7L612.9 333.7L610.3 331L609.4 329.2L608.8 325.5ZM648 318.1L647.6 315.2L649 313.1L648.9 311.4L652.9 307.3L653.6 303.9L655 302.6L657.4 303.3L659.5 302.3L660.2 301L664 298.8L665 297.2L669.7 295.1L672.4 294.4L673.7 295.4L676.9 295.4L676.5 297.8L677.1 300.1L680 303.3L680.1 305.7L685.9 306.9L685.8 310.3L684.7 311.8L682.2 312.3L681.2 314.4L679.5 315L675.1 314.9L672.8 314.5L671.2 315.3L669 315L660.3 315.2L660.2 318L660.9 321.8L657.4 320.5L655.1 320.7L653.3 321.9L651.1 320.9L650.2 319.2L648 318.1ZM811.9 343.8L810.2 344.4L807 344.2L803.3 343.7L801.4 344.1L800.6 345.4L799 345.5L797.1 344.5L791.5 347L789.2 346.4L788.5 346.8L787 349.9L783.3 348.9L779.6 348.4L776.5 346.5L772.3 344.8L769.7 346.5L767.7 349L767.3 352.5L764 352.2L760.7 351.4L757.7 354L755.1 358.7L754.5 357.2L754.3 354.9L752 353.3L750.2 350.7L749.8 348.9L747.4 346.3L747.8 344.8L747.3 342.7L747.7 338.9L748.9 338L751.4 332.9L755.5 332.5L756.5 331.2L757.3 331.3L758.5 332.5L764.8 330.5L766.9 328.6L769.6 326.8L769.1 325.1L770.5 324.6L775.3 324.9L780 322.6L783.6 317.2L786.2 315.1L789.3 314.3L789.9 316.4L792.8 319.6L792.8 321.6L792 323.7L792.3 325.2L794 326.7L797.8 328.9L800.6 330.9L800.6 332.5L804 335.1L806.1 337.3L807.3 340.3L811.1 342.2L811.9 343.8ZM767.3 352.5L767 355.5L765.5 358.2L764.5 361.3L763.9 365.7L764.1 368.6L763.3 370.3L763.2 372.1L762.6 373.7L759.3 376.1L757 378.7L754.9 383.6L755 387.7L753.8 389.3L750.9 391.7L747.9 394.9L746 394L745.7 392.6L743 392.5L741.3 394.4L740 393.9L738.1 392.2L736.6 393L734.6 395.2L730.5 389.9L734.3 387.1L732.4 383.8L734.1 382.6L737.5 382L737.9 379.7L740.5 382.1L745 382.4L746.5 380L747.1 376.7L746.6 372.8L744.2 369.8L746.4 364L745.1 363L741.4 363.4L740 360.8L740.4 358.7L746.7 358.9L750.7 360.2L754.7 361.4L755.1 358.7L757.7 354L760.7 351.4L764 352.2L767.3 352.5ZM731.4 358.7L733.8 358.4L736.8 359L739.8 358.4L740 360.8L741.4 363.4L745.1 363L746.4 364L744.2 369.8L746.6 372.8L747.1 376.7L746.5 380L745 382.4L740.5 382.1L737.9 379.7L737.5 382L734.1 382.6L732.4 383.8L734.3 387.1L730.5 389.9L725.3 384.8L722 380.7L719 375.6L719.2 373.9L720.2 372.3L721.5 368.7L722.5 364.9L724.2 364.7L731.4 364.7L731.4 358.7ZM723.2 358.6L731.4 358.7L731.4 364.7L724.2 364.7L722.5 364.9L721.5 364.2L723.2 358.6ZM828.7 411.7L830.8 413L832.8 413.8L836 414.7L838.8 416.2L841.2 418.4L842.4 422.6L841.6 424L840.6 428L841.5 432.2L840 433.9L838.4 438.6L841.1 439.9L825.9 444L826.4 447.5L822.6 448.2L819.7 450.2L819.1 451.9L817.3 452.3L813 456.5L810.2 459.7L808.5 459.8L806.9 459.2L801.3 458.7L800.4 458.3L798.4 456.8L795.2 456.5L791.1 457.6L787.8 454.5L784.4 450.4L784.7 434.5L795.1 434.6L794.7 432.8L795.4 431L794.5 428.6L795.1 426.2L794.6 424.6L796.3 424.8L796.6 426.3L798.9 426.2L802.1 426.7L803.8 428.9L807.8 429.6L810.8 428L811.9 430.7L815.8 431.4L817.6 433.5L819.7 436.2L823.5 436.3L823.1 430.9L821.7 431.8L818.2 429.9L816.9 429L817.5 423.9L818.4 418L817.2 415.8L818.7 412.6L820 412L826.7 411.2L828.7 411.7ZM838.8 416.2L843.7 417.1L844.7 418.5L846.4 420.8L847.8 427.6L846.4 431.4L847.8 437.9L849.5 437.8L851.3 439.4L853.4 443.1L853.9 449.5L851.7 450.5L850.2 454L846.9 450.9L846.5 447.4L847.6 445.1L847.3 443.1L845.3 441.8L843.9 442.3L841.1 439.9L838.4 438.6L840 433.9L841.5 432.2L840.6 428L841.6 424L842.4 422.6L841.2 418.4L838.8 416.2ZM847.8 427.6L851.6 427.2L857.6 428.6L858.9 428L862.4 427.8L864.1 426.3L867.1 426.4L872.6 424.5L876.6 421.6L877.4 423.8L877.2 428.8L877.8 433.2L878 441L878.9 443.5L877.4 447L875.4 450.5L872.3 453.6L867.7 455.5L862.1 457.9L856.4 463.3L854.5 464.2L851 467.8L848.9 468.9L848.5 472.5L850.9 476.3L851.9 479.2L851.9 480.7L852.8 480.5L852.7 485.4L851.9 487.7L853 488.5L852.3 490.6L850.2 492.4L846.1 494.1L840.1 496.8L837.9 498.6L838.3 500.7L839.6 501.1L839.2 503.7L835.4 503.7L834.9 501.5L834.2 499.2L833.8 497.4L834.7 491.8L833.4 488.3L831 481.3L836.2 475.6L837.5 472L838.3 471.5L838.9 468.6L838.1 467.1L838.3 463.4L839.2 459.9L839.2 453.6L836.6 452L834.3 451.6L833.2 450.4L830.9 449.3L826.7 449.4L826.4 447.5L825.9 444L841.1 439.9L843.9 442.3L845.3 441.8L847.3 443.1L847.6 445.1L846.5 447.4L846.9 450.9L850.2 454L851.7 450.5L853.9 449.5L853.4 443.1L851.3 439.4L849.5 437.8L847.8 437.9L846.4 431.4L847.8 427.6ZM835.4 503.7L834.3 505.9L831.4 506.4L828.4 503.7L828.4 502L829.7 500.1L830.2 498.7L831.7 498.3L834.2 499.2L834.9 501.5L835.4 503.7ZM740 393.9L738.2 395L737.3 396.2L737.2 398.4L735.9 398.9L734.6 395.2L736.6 393L738.1 392.2L740 393.9ZM736.6 400.5L738.7 399.8L740.1 399.9L741.9 399.3L756.6 399.4L757.9 403.1L759.3 406.1L760.4 407.7L762.4 410.3L765.7 409.9L767.3 409.2L770.1 409.9L770.8 408.7L772.1 405.8L775.2 405.6L775.5 404.7L778 404.7L777.6 406.5L783.6 406.5L783.7 409.6L784.7 411.5L784 414.5L784.4 417.6L786 419.5L785.8 425.4L787 425L789.2 425.1L792.3 424.3L794.6 424.6L795.1 426.2L794.5 428.6L795.4 431L794.7 432.8L795.1 434.6L784.7 434.5L784.4 450.4L787.8 454.5L791.1 457.6L781.9 459.7L769.8 458.9L766.3 456.5L746 456.8L745.3 457.1L742.3 454.9L739.1 454.7L736.1 455.6L733.7 456.5L733.2 453.4L733.9 449L735.6 444.4L735.9 442.2L737.5 437.7L738.7 435.7L741.6 432.4L743.2 430.2L743.7 426.5L743.4 423.7L741.9 421.9L740.6 418.8L739.4 415.8L739.6 414.8L741.2 412.8L739.7 408L738.6 404.6L736.1 401.5L736.6 400.5ZM827.3 382.1L827.6 384L828.7 385.2L828.8 386.8L827.5 387.8L825.6 390.5L823.8 392.3L821.7 392.5L821.4 386.5L820.1 384.2L823.2 384.6L824.7 381.7L827.3 382.1ZM853.6 206.5L852.7 208L850.9 207.3L849.9 210.7L851.1 211.2L849.9 211.9L849.6 213.2L852 212.6L852.1 214.5L849.6 222.5L849.1 221.2L846.3 213.9L847.8 212.3L848.8 209.6L849.8 205.9L850.5 204.6L852.3 204.6L852.8 203.7L854.1 203.6L854.2 205.7L853.5 206.4L853.6 206.5ZM854.1 203.6L852.8 203.7L852.3 204.6L850.6 204.5L852.4 200.5L854.9 196.9L857.2 197L858.1 199L855.3 200.9L854.1 203.6ZM922.7 432.3L924 434.5L925.3 437.8L926.1 443.8L927.4 446.1L926.9 448.5L926 450L924.3 447.1L923.4 448.6L924.3 452.3L923.9 454.4L922.5 455.5L922.2 459.8L920.2 465.6L917.7 472.5L914.7 482L912.7 488.9L910.5 494.7L906.4 495.9L902 498L899.2 496.7L895.2 494.9L893.8 492.3L893.5 487.9L891.7 483.9L891.3 480.3L892.2 476.7L894.5 475.8L894.5 474.2L896.9 470.4L897.3 467.2L896.2 464.8L895.2 461.7L894.8 457L896.6 454.3L897.2 451.1L899.7 450.9L902.5 449.9L904.4 449L906.6 448.9L909.4 446.1L913.5 443L915 440.5L914.3 438.3L916.5 438.9L919.2 435.4L919.3 432.4L921 430.2L922.7 432.3ZM852 212.6L849.6 213.2L849.9 211.9L851.1 211.2L849.9 210.7L850.9 207.3L852.7 208L852.7 211.1L852 212.6ZM591.4 302L596.9 301.9L598 300.7L599.6 300.6L601.6 301.8L603.1 301.9L604.8 301L605.8 302.5L603.6 303.6L601.4 303.5L599.3 302.5L597.4 303.6L596.5 303.6L595.3 304.3L590.8 304.2L591.4 302ZM722.4 218.5L720.3 209.5L717.2 207.5L717.2 206.3L713.1 203.3L712.6 199.5L715.7 196.7L716.9 192.6L716.1 187.8L717.1 185.3L722.5 183.3L726.1 183.8L725.9 186.4L730.1 184.5L730.5 185.5L728 188L728 190.3L729.7 191.5L729 195.8L725.7 198.3L726.7 201.1L729.3 201.2L730.5 203.5L732.4 204.3L732.2 208.2L729.7 209.6L728.2 211.2L724.8 213.1L725.3 215.2L724.9 217.3L722.4 218.5ZM631.6 233L631.7 232.1L631.6 225.8L639.7 222.1L644.7 221.3L648.8 220L650.7 217.5L656.5 215.5L656.8 211.8L659.7 211.4L661.9 209.5L668.5 208.7L669.4 206.7L668.1 205.7L666.3 200.4L666 197.4L664.2 194.2L669 191.4L674.4 190.6L677.5 188.5L682.3 187L690.8 186.1L699.1 185.7L701.6 186.4L706.3 184.4L711.7 184.4L713.7 185.6L717.1 185.3L716.1 187.8L716.9 192.6L715.7 196.7L712.6 199.5L713.1 203.3L717.2 206.3L717.2 207.5L720.3 209.5L722.4 218.5L724 222.9L724.3 225.2L723.4 229.3L723.8 231.6L723.1 234.3L723.6 237.4L721.6 239.5L724.6 243.2L724.7 245.3L726.5 248.1L728.9 247.2L732.8 249.5L735 252.6L717.9 262.2L703.4 272L696.3 274.2L690.8 274.7L690.7 271.5L688.4 270.7L685.3 269.3L684.1 266.9L667.2 256L650.4 245.1L631.6 233ZM852.7 208L853.6 206.5L859.2 208.4L869 203.1L871 209.2L870 209.9L860 212.5L865 217.5L863.3 218.3L862.5 220L858.7 220.7L857.5 222.5L855.3 224L849.8 223.2L849.6 222.5L852.1 214.5L852 212.6L852.7 211.1L852.7 208ZM932.9 248.8L933.8 248.5L934 249.9L937.9 249.1L942 249.2L945 249.4L948.5 246L952.2 242.8L955.4 239.7L956.3 241.4L957 245.4L954.4 245.4L954 248.7L954.9 249.3L952.6 250.3L952.6 252.4L951.2 254.4L951 256.5L950 257.5L935 255L933.1 249.9L932.9 248.8ZM929.1 246.2L928.7 242.6L930.1 240L931.4 239.4L932.9 241L933 243.9L931.9 246.9L930.6 247.2L929.1 246.2ZM914.9 220.1L915.9 222.3L915.5 223.5L917.1 227.2L913.5 227.4L912.3 225L907.8 224.5L911.5 219.7L914.9 220.1ZM871 209.2L869 203.1L880 197.9L881.9 191.9L881.4 188.2L884.2 187L886.7 183.9L888.9 183.1L894.7 183.7L896.5 185L898.9 184.1L902.1 190.1L905.4 191.6L905.8 194.5L903.2 196.3L902.1 200.2L905.5 204.9L911.7 207.7L914.2 211.5L913.4 215.1L915 215.1L915.1 217.7L917.8 220.4L914.9 220.1L911.5 219.7L907.8 224.5L898.5 224.1L884.4 214L877 210.6L871 209.2ZM951 256.5L951.2 254.4L952.6 252.4L952.6 250.3L954.9 249.3L954 248.7L954.4 245.4L957 245.4L959.2 248.8L962 250.6L965.7 251.3L968.6 252.2L970.9 255L972.3 256.7L974 257.3L974 258.4L972.2 261.4L971.4 262.8L969.3 264.4L967.4 267.9L965.2 267.6L964.1 268.8L963.3 271.3L963.9 274.7L963.5 275.3L961.2 275.3L958 277.1L957.6 279.6L956.4 280.6L953.3 280.6L951.3 281.8L951.4 283.9L949 285.2L946.2 284.8L942.9 286.5L940.5 286.7L938.9 283.3L935 275L950 270L953.3 260L951 256.5ZM956.3 241.4L955.4 239.7L956.8 238L957.4 238.5L957 240.5L956.3 241.4ZM1064.2 192.5L1059.4 196.7L1053.8 197.5L1046.2 196.3L1043.7 198.4L1045.5 202.8L1047.3 206.2L1051.3 208.6L1047 211.5L1047.1 215.1L1042.3 220.1L1039.1 225.2L1033.9 230.4L1028.1 230.1L1022.6 235.3L1025.8 237.5L1026.4 241.4L1029.2 243.9L1030.2 248.2L1019.2 248.2L1015.9 251.5L1012.2 250.3L1010.7 246.7L1006.9 242.9L997.7 243.8L989.5 243.9L982.5 244.6L984.4 238.8L991.6 236.2L991.2 233.9L988.8 233.1L988.6 228.7L983.9 226.5L981.8 223.5L979.4 220.9L987.7 223.4L992.8 222.7L995.7 223.3L996.8 222.2L1000.2 222.6L1006.7 220.6L1006.9 216.3L1009.7 213.5L1013.4 213.5L1014 212.1L1017.8 211.4L1019.6 211.9L1021.6 210.5L1021.3 207.5L1023.4 204.5L1026.6 203.2L1024.7 199.9L1029.4 200.1L1030.8 198.3L1030.6 196.3L1033.1 194.2L1032.5 191.7L1031.3 189.6L1034.2 187.5L1039.6 186.4L1045.3 185.8L1047.9 184.9L1050.8 184.3L1054.5 186.7L1056 190.5L1064.2 192.5ZM1007.6 183.2L1010.4 183.2L1014.2 184.3L1015.7 184.9L1019.3 183.3L1021 184.2L1022.6 182L1025.6 182.1L1026.4 181.3L1026.9 179.3L1029 177.6L1031.7 178.7L1031.2 180.2L1032.7 180.5L1032.2 184.7L1034.2 186.3L1036 185.3L1038.2 184.8L1041.3 182.5L1044.7 182.9L1049.9 182.9L1050.8 184.3L1047.9 184.9L1045.3 185.8L1039.6 186.4L1034.2 187.5L1031.3 189.6L1032.5 191.7L1033.1 194.2L1030.6 196.3L1030.8 198.3L1029.4 200.1L1024.7 199.9L1026.6 203.2L1023.4 204.5L1021.3 207.5L1021.6 210.5L1019.6 211.9L1017.8 211.4L1014 212.1L1013.4 213.5L1009.7 213.5L1006.9 216.3L1006.7 220.6L1000.2 222.6L996.8 222.2L995.7 223.3L992.8 222.7L987.7 223.4L979.4 220.9L983.9 216.3L983.5 213.1L979.7 212.3L979.3 209.1L977.7 205.1L979.8 202.4L977.6 201.6L979 198L981.1 191.7L986.2 193.6L989.9 193L991 190.7L994.9 190L997.7 188.4L998.7 184.4L1002.9 183.5L1003.7 181.7L1006.1 183L1007.6 183.2ZM937.5 161.1L939.7 159.4L945.4 158.4L948.8 159.8L952.3 163.7L954.8 163.5L960.5 163.4L959.7 160.9L963.9 159.1L968.1 156.2L974.9 158.9L975.4 162.9L977.3 163.9L982.7 163.7L984.4 164.6L986.9 169.7L992.6 173.2L995.9 175.5L1001.1 178L1007.7 180.1L1007.6 183.2L1006.1 183L1003.7 181.7L1002.9 183.5L998.7 184.4L997.7 188.4L994.9 190L991 190.7L989.9 193L986.2 193.6L981.1 191.7L980.6 187.5L976.9 187.4L971.2 182.9L967.2 182.4L961.7 179.9L958.1 179.4L955.9 180.3L952.6 180.2L949 183L944.6 184L943.7 180.5L944.4 175.2L940.5 173.5L941.8 170.1L938.5 169.8L939.6 165.6L944.3 166.8L948.7 165.2L945 162.2L943.6 159.4L939.6 160.7L939.1 164.3L937.5 161.1ZM917.8 220.4L915.1 217.7L915 215.1L913.4 215.1L914.2 211.5L911.7 207.7L905.5 204.9L902.1 200.2L903.2 196.3L905.8 194.5L905.4 191.6L902.1 190.1L898.9 184.1L896.1 180.1L897.1 178.6L895.5 172.9L899 171.4L899.8 173.3L902.3 175.6L905.7 176.3L907.5 176.1L913.4 172.5L915.3 172.1L916.8 173.6L915.1 176L918.2 178.6L919.4 178.4L921 182.1L925.7 183.1L929.2 185.6L936.3 186.5L944.1 185.2L944.6 184L949 183L952.6 180.2L955.9 180.3L958.1 179.4L961.7 179.9L967.2 182.4L971.2 182.9L976.9 187.4L980.6 187.5L981.1 191.7L979 198L977.6 201.6L979.8 202.4L977.7 205.1L979.3 209.1L979.7 212.3L983.5 213.1L983.9 216.3L979.4 220.9L981.8 223.5L983.9 226.5L988.6 228.7L988.8 233.1L991.2 233.9L991.6 236.2L984.4 238.8L982.5 244.6L973.1 243.1L967.6 242L962 241.3L959.9 235.2L957.5 234.3L953.6 235.2L948.6 237.6L942.5 235.9L937.4 232.1L932.6 230.7L929.3 225.9L925.6 219.3L922.9 220.1L919.7 218.4L917.8 220.4ZM853.6 206.5L854.2 205.7L854.1 203.6L855.3 200.9L858.1 199L857.2 197L855 196.8L854.5 192.9L855.7 190.9L857.1 189.8L858.4 188.7L858.7 185.9L860.3 186.9L865.8 185.5L868.5 186.4L872.6 186.4L878.4 184.5L881.1 184.6L886.7 183.9L884.2 187L881.4 188.2L881.9 191.9L880 197.9L869 203.1L859.2 208.4L853.6 206.5ZM907.5 176.1L905.7 176.3L903.7 173.4L903.7 172.6L901.5 172.6L900 171.3L899 171.4L897 170L893.3 168.7L893.8 166.3L892.9 164.5L899.9 163.8L900.9 165.1L902.8 165.9L901.8 167.2L904.5 168.9L903.1 170.5L905.2 171.9L907.4 172.7L907.5 176.1ZM730.1 75.7L732.3 72.8L736.5 69.4L738.2 63.5L735 61L734.7 54.4L737.9 49.7L742.9 49.8L744.6 47.8L742.8 46.1L750.5 39L755.5 33.5L758.8 29.9L763.6 29.9L765 27.2L774.4 28L775.1 24.7L778.2 24.5L784.9 26.9L792.7 30.3L792.8 38L794.5 40L785.9 41.4L781.1 44.9L781.8 47.9L773.9 52L764.2 56.3L760.6 63.3L764.2 66.8L768.9 69.6L764.3 75.2L759.1 76.4L757.2 84.8L754.4 89.5L748.3 89L745.5 93L739.7 93.2L738.1 88.5L733.9 82.8L730.1 75.7ZM815.9 89.2L821.1 90.4L821.9 91.6L824.5 91.1L829.4 92.2L829.9 94.6L828.8 95.9L831.9 99.2L834 100.1L833.7 101L837 101.9L838.5 103.2L836.5 104.3L832.5 104.2L831.5 104.6L832.7 106.3L833.9 109.5L829.6 109.8L828.1 110.9L827.8 113.4L825.8 112.9L821.3 113.2L820 112L818.1 112.9L816.2 112.1L812.3 112L806.7 110.8L801.6 110.4L797.8 110.6L795 111.9L792.6 112.1L792.5 109.9L791 107.6L794 106.5L794 104.6L792.6 102.6L792.4 100.4L797.3 100.5L802.7 98.6L803.8 95.8L807.9 94.2L807.5 91.9L810.5 91.1L815.9 89.2ZM833.9 109.5L835.8 109.7L837.1 108.6L838.6 108.8L843.8 108.3L847 111.2L845.7 112.2L846.1 113.7L850.1 114L851.9 116.1L851.8 117.1L858.1 118.9L862 118.1L865.1 120.4L868 120.4L875.3 122L875.4 123.5L873.4 126.1L874.5 128.8L873.7 130.5L868.9 130.9L866.3 132.3L866.1 134.5L862.1 134.9L858.8 136.5L854.1 136.8L849.8 138.6L850.1 141.3L849.3 141.2L848.7 140.2L847.1 140L843.5 138.9L842.2 140.1L841.5 139.6L833.7 138.3L833.4 136.5L828.7 137.1L826.9 139.8L823 143.5L820.7 142.7L818.4 143.5L816.2 142.6L817.4 142L818.3 140.3L819.7 138.7L819.3 137.8L820.4 137.4L820.9 138.1L823.8 138.3L825.1 137.9L824.2 137.4L824.5 136.6L822.8 135.4L822.1 133.3L820.3 132.4L820.6 130.8L818.4 129.4L816.3 129.2L812.6 127.7L809.3 128.2L808.1 128.9L806 128.9L804.7 130.1L801 130.5L799.3 131.3L797 130.1L793.8 130.1L790.7 129.5L788.6 130.6L788.2 129.2L785.4 127.9L786.4 125.9L787.8 124.6L788.9 124.9L787.6 122.6L792.1 118.5L794.6 117.9L795.1 116.5L792.6 112.1L795 111.9L797.8 110.6L801.6 110.4L806.7 110.8L812.3 112L816.2 112.1L818.1 112.9L820 112L821.3 113.2L825.8 112.9L827.8 113.4L828.1 110.9L829.6 109.8L833.9 109.5ZM792.4 100.4L792.6 102.6L794 104.6L794 106.5L791 107.6L792.5 109.9L792.6 112.1L795.1 116.5L794.6 117.9L792.1 118.5L787.6 122.6L788.9 124.9L787.8 124.6L783 122.6L779.4 123.4L777.1 122.8L774.1 123.9L771.6 122.1L769.5 122.8L767 120.1L763.2 119.8L762.8 118.2L759.3 117.6L758.6 118.9L755.9 117.9L756.2 116.5L752.5 116.1L750.1 114.5L748 111.3L748.4 109.6L747.2 106.9L745.4 105.1L746.8 103.8L745.6 101.2L749 99.7L756.8 97.4L763.1 95.7L768.1 96.6L768.5 97.8L773.3 97.9L779.5 98.4L788.7 98.4L791.2 98.9L792.4 100.4ZM759.9 129.4L759.5 131.4L756.7 131.4L757.7 132.5L756 135.7L755.1 136.6L750.7 136.7L748.2 137.8L744 137.5L736.9 136.2L735.8 134.4L730.8 135.3L730.2 136.2L727.2 135.5L724.7 135.4L722.4 134.5L723.2 133.3L723 132.4L724.5 132.1L727 133.5L727.7 132.2L732.1 132.4L735.7 131.5L738.1 131.6L739.7 132.7L740.1 131.8L739.4 128.6L741.2 127.9L743 125.6L746.7 127.2L749.5 125.2L751.3 124.8L755.1 126.3L757.5 126.1L759.8 127L759.4 127.6L759.9 129.4ZM785.4 127.9L788.2 129.2L788.6 130.6L785.5 131.6L783.1 135L780.1 138.4L776.1 139.4L773 139.1L769.1 140.5L767.3 141.2L763.2 140.2L759.4 138.1L757.8 137.5L756.9 135.8L756 135.7L757.7 132.5L756.7 131.4L759.5 131.4L759.9 129.4L762.4 130.7L764.3 131.2L768.5 130.6L768.9 129.6L770.9 129.4L773.3 128.7L776.2 128.4L777.4 127.2L779 126.9L784.4 128.4L785.4 127.9ZM808.1 128.9L809.3 128.2L812.6 127.7L816.3 129.2L818.4 129.4L820.6 130.8L820.3 132.4L822.1 133.3L822.8 135.4L824.5 136.6L824.2 137.4L825.1 137.9L823.8 138.3L820.9 138.1L820.4 137.4L819.3 137.8L819.7 138.7L818.3 140.3L817.4 142L816.2 142.6L815.3 140.3L815.8 138.1L815.6 135.9L812.8 133L811.2 130.9L809.6 129.4L808.1 128.9ZM816.2 142.6L818.4 143.5L820.7 142.7L823 143.5L823.1 144.8L820.7 145.9L819.2 145.4L817.8 151.5L814.9 150.9L811.2 149.1L805.3 150.3L802.8 151.6L795.5 151.3L791.7 150.5L789.7 150.9L788.3 148.8L787.4 148L788.5 147.1L787.3 146.5L785.7 147.6L782.8 146.2L782.4 144.1L779.4 142.9L778.8 141.3L776.1 139.4L780.1 138.4L783.1 135L785.5 131.6L788.6 130.6L790.7 129.5L793.8 130.1L797 130.1L799.3 131.3L801 130.5L804.7 130.1L806 128.9L808.1 128.9L809.6 129.4L811.2 130.9L812.8 133L815.6 135.9L815.8 138.1L815.3 140.3L816.2 142.6ZM807.5 91.9L807.9 94.2L803.8 95.8L802.7 98.6L797.3 100.5L792.4 100.4L791.2 98.9L788.7 98.4L788.3 97.1L788.8 95.7L786.6 94.9L781.3 94L780.3 89.8L786 88.3L794.4 88.6L799.3 88.1L800 89.2L802.7 89.5L807.5 91.9ZM811.4 82.6L813.9 83.8L814.3 86.2L815.9 89.2L810.5 91.1L807.5 91.9L802.7 89.5L800 89.2L799.3 88.1L794.4 88.6L786 88.3L780.3 89.8L780.5 86.1L782.9 82.9L787.6 81.2L791.6 85L795.6 84.9L796.6 81L800.8 80.1L803 80.8L807.3 82.6L811.4 82.6ZM814.9 72.6L815.7 73.5L812.1 76.4L813.6 81L811.4 82.6L807.3 82.6L803 80.8L800.8 80.1L796.6 81L797.1 78.1L795.3 78.7L792.1 76.9L791.7 74.1L798 72.7L804.3 71.9L809.7 72.8L814.9 72.6L814.9 72.6ZM745.6 101.2L746.8 103.8L745.4 105.1L747.2 106.9L748.4 109.6L748 111.3L750.1 114.5L747.9 115L746.5 114.4L745.3 115.4L741.7 116.3L739.8 117.6L736.2 118.7L737.1 120.2L737.6 122.3L740.2 123.5L743 125.6L741.2 127.9L739.4 128.6L740.1 131.8L739.7 132.7L738.1 131.6L735.7 131.5L732.1 132.4L727.7 132.2L727 133.5L724.5 132.1L723 132.4L717.6 130.8L716.6 131.9L712.3 131.9L713 128.3L715.5 124.9L708.3 124L705.9 122.7L706.2 120.5L705.2 119.4L705.8 116L704.9 110.7L707.9 110.7L709.2 108.9L710.5 104.3L709.5 102.6L710.5 101.5L714.7 101.3L715.6 102.4L719 99.9L717.9 98L717.6 95.2L721.4 95.8L724.6 95.1L724.7 97L729.8 98.2L729.7 100L734.8 99L737.6 97.6L743.2 99.6L745.6 101.2ZM788.3 148.8L789.7 150.9L791.7 150.5L795.5 151.3L802.8 151.6L805.3 150.3L811.2 149.1L814.9 150.9L817.8 151.5L815.2 153.5L813.4 157.1L815 160L810.7 159.3L805.6 160.9L805.5 163.4L801 163.8L797.5 162.1L793.5 163.5L789.8 163.3L789.4 160L786.9 158.4L787.7 157.7L787.2 157.1L788 155.5L789.9 153.9L787.5 151.8L787.1 150L788.3 148.8ZM806.5 193.5L805.8 195L798.6 195.4L798.7 194.6L792.6 193.6L793.5 191.5L796.2 193.2L800.1 192.9L803.8 193.2L803.7 194.1L806.5 193.5ZM789.8 163.3L793.5 163.5L797.5 162.1L801 163.8L805.5 163.4L805.6 160.9L808 162.2L806.5 165.3L805.3 165.9L802.2 165.7L799.6 165.3L793.6 166.6L797 169.4L794.5 170.2L791.7 170.2L789.1 167.6L788.1 168.7L789.2 171.7L791.8 174L789.9 175.1L792.7 177.4L795.1 178.9L795.2 181.7L790.6 180.4L792 183L788.9 183.5L790.8 187.9L787.5 188L783.4 185.8L781.5 181.8L780.6 178.4L778.7 176.2L776.1 173.3L775.8 171.9L778.1 169.4L778.4 167.8L780 167.1L780.1 165.8L783.4 165.3L785.3 164.3L788 164.3L788.8 163.5L789.8 163.3ZM898.9 184.1L896.5 185L894.7 183.7L888.9 183.1L886.7 183.9L881.1 184.6L878.4 184.5L872.6 186.4L868.5 186.4L865.8 185.5L860.3 186.9L858.7 185.9L858.4 188.7L857.1 189.8L855.7 190.9L853.9 188.6L855.8 186.7L852.8 187.2L848.6 186L845.1 188.9L837.5 189.5L833.5 186.8L828.1 186.6L827 188.7L823.5 189.3L818.7 186.6L813.2 186.7L810.2 181.7L806.6 179L809 175.1L805.9 172.7L811.4 167.9L819.1 167.7L821.2 163.9L830.7 164.6L836.7 161.3L842.6 159.9L850.8 159.8L859.6 163.3L866.7 165.3L872.6 164.5L876.9 164.9L882.8 162.3L888.1 162.1L892.9 164.5L893.8 166.3L893.3 168.7L897 170L899 171.4L895.5 172.9L897.1 178.6L896.1 180.1L898.9 184.1L898.9 184.1ZM805.6 160.9L810.7 159.3L815 160L815.6 161.9L819.9 163.5L819 164.7L813.1 165L811 166.5L806.8 169.2L805.2 166.9L805.3 165.9L806.5 165.3L808 162.2L805.6 160.9ZM780.1 165.8L780 167.1L778.4 167.8L778.1 169.4L775.8 171.9L774.9 171.5L774.8 170.4L772 168.7L771.6 166.4L772 163L772.7 161.4L771.9 160.6L771.5 159L773.7 156.6L774 157.5L775.4 157.1L776.4 158.4L777.6 158.9L778 160.7L777.3 162.4L778 164.6L780.1 165.8ZM757.8 137.5L759.4 138.1L763.2 140.2L767.3 141.2L769.1 140.5L770.4 142.4L772 143.8L770 145.7L767.8 144.6L764.3 144.7L760 143.8L757.7 143.9L756.6 145L754.8 143.8L753.8 145.9L756.2 148.2L757.3 149.8L759.6 151.7L761.5 152.8L763.4 154.9L767.8 156.8L767.3 157.6L762.5 155.8L759.7 154L755.1 152.5L750.9 148.8L751.9 148.4L749.6 146.3L749.5 144.6L746.3 143.8L744.8 146L743.3 144.3L743.4 142.6L747.1 142.7L748 141.8L749.7 142.6L751.6 142.7L751.6 141.3L753.4 140.8L753.8 138.8L757.8 137.5ZM723 132.4L723.2 133.3L722.4 134.5L724.7 135.4L727.2 135.5L726.8 137.6L724.6 138.4L720.9 137.8L719.8 139.8L717.4 140L716.6 139.2L713.8 140.9L711.4 141.1L709.2 140L707.5 137.9L705.1 138.6L705.2 136.4L708.8 133.6L708.7 132.3L711 132.8L712.3 131.9L716.6 131.9L717.6 130.8L723 132.4ZM705.2 119.4L706.2 120.5L705.9 122.7L704.5 122.8L703.4 122.4L703.9 119.5L705.2 119.4ZM705.8 116L705.2 119.4L703.9 119.5L703.4 122.4L699 120.1L696.4 120.5L692.9 118.1L690.6 116.1L688.3 116L687.6 114.3L691.6 113.3L695.2 113.7L699.9 112.6L703 114.8L705.8 116ZM709.5 102.6L710.5 104.3L709.2 108.9L707.9 110.7L704.9 110.7L705.8 116L703 114.8L699.9 112.6L695.2 113.7L691.6 113.3L694.2 111.9L698.5 104.5L705.4 102.4L709.5 102.6ZM629.8 160.6L631.6 159.3L633.7 158.6L634.9 161L637.9 161L638.7 160.4L641.7 160.6L643.1 163.1L640.7 164.4L640.7 168.3L639.9 169.1L639.7 171.4L637.5 171.9L639.5 174.8L638.1 178.1L639.9 179.6L639.2 181L637.3 182.9L637.7 184.5L635.7 185.8L633.1 185.1L630.5 185.7L631.3 181.7L630.8 178.7L628.6 178.2L627.4 176.3L627.8 173L629.8 171.2L630.1 169.2L631.2 166.2L631 164.1L630 162.3L629.8 160.6ZM637.7 184.5L637.3 182.9L639.2 181L639.9 179.6L638.1 178.1L639.5 174.8L637.5 171.9L639.7 171.4L639.9 169.1L640.7 168.3L640.7 164.4L643.1 163.1L641.7 160.6L638.7 160.4L637.9 161L634.9 161L633.7 158.6L631.6 159.3L629.8 160.6L630.1 157L628 154.9L635.1 151.3L641.2 152.2L647.9 152.1L653.3 153L657.4 152.7L665.5 152.9L667.5 154.8L676.7 157.1L678.5 156L684.1 158.3L689.9 157.6L690.2 160.5L685.5 163.9L679.1 164.9L678.6 166.6L675.5 169.4L673.6 173.5L675.6 176.3L672.7 178.5L671.6 181.8L667.8 182.8L664.3 186.6L657.9 186.7L653.2 186.6L650 188.4L648.1 190.3L645.7 189.9L643.8 188.2L642.4 185.3L637.7 184.5ZM644 100.7L644.8 104.2L641.1 108.7L632.2 111.7L625.1 110.9L629.2 105.7L626.6 100.6L633.4 96.7L637.1 94.3L638.2 97L637.1 99.7L640.2 99.6L644 100.7ZM727.2 135.5L730.2 136.2L730.8 135.3L735.8 134.4L736.9 136.2L744 137.5L743.5 139.9L744.7 142L740.7 141.3L736.6 143.1L736.9 145.6L736.3 147L737.9 149.5L742.6 152.1L745.1 156.2L750.7 160.2L754.6 160.2L755.8 161.3L754.4 162.3L758.9 164.1L762.6 165.6L766.9 168.2L767.4 169.2L766.5 170.9L763.7 168.6L759.3 167.8L757.2 171L760.9 172.9L760.3 175.5L758.2 175.8L755.5 180.1L753.4 180.5L753.4 178.9L754.5 176.2L755.5 175.2L753.6 172.3L752.1 169.8L750 169.1L748.5 167L745.3 166.1L743.1 164.1L739.4 163.7L735.5 161.5L731 158.2L727.6 155.3L726 150.4L723.5 149.8L719.4 148.2L717.1 148.8L714.3 151.2L712.2 151.5L712.7 149.4L710 148.7L708.7 144.9L710.5 143.3L709 141.5L709.2 140L711.4 141.1L713.8 140.9L716.6 139.2L717.4 140L719.8 139.8L720.9 137.8L724.6 138.4L726.8 137.6L727.2 135.5ZM748.8 179.3L752.6 178.8L750.8 182.8L751.5 184.3L750.5 186.9L746.7 185L744.1 184.5L737.2 181.9L737.9 179.4L743.7 179.8L748.8 179.3ZM718.5 165.5L721.1 164L724 167.5L723.3 174.1L721.1 173.8L719 175.5L717.1 174.1L716.9 168.1L715.8 165.2L718.5 165.5ZM724.6 95.1L721.4 95.8L717.6 95.2L715.6 92.4L715.4 87.3L716.3 86L717.7 84.4L722.1 84.1L723.9 82.8L727.9 81.3L727.7 83.9L726.3 85.5L726.8 87L729.6 87.7L728.3 89.6L726.8 89L723.2 92.7L724.6 95.1ZM736.9 89.4L738.5 92L735.4 96L730.2 93.2L729.5 91.1L736.9 89.4ZM644 100.7L640.2 99.6L637.1 99.7L638.2 97L637.1 94.3L641.3 94.1L646.7 97.2L644 100.7ZM659.5 103L660.3 100.1L656.9 97L650.8 96L649.6 94.7L651.4 92.5L649.8 91.1L647.1 93.4L646.8 88.6L644.3 86.1L646.1 80.9L650 76.8L653.9 77.2L660 76.8L654.6 82.2L659.7 81.5L665.2 81.6L663.9 85.6L659.4 90.1L664.6 90.5L669.4 96.9L672.8 97.7L675.9 103.4L677.3 105.4L683.4 106.3L682.8 109.5L680.3 111L682.2 113.6L677.8 116.2L671.1 116.1L662.6 117.5L660.2 116.5L656.9 118.9L652.3 118.3L648.8 120.2L646.1 119.2L653.5 113.9L657.9 112.9L650.1 112L648.7 110L653.9 108.5L651.1 105.8L652.1 102.5L659.5 103ZM602.5 37.7L601.3 41L607 44.4L600.5 48.2L586 51.6L581.7 52.5L575.1 51.8L561.2 50.2L566.1 48L555.2 45.5L564.1 44.6L563.9 43.1L553.4 41.9L556.7 38.7L564.3 37.9L572.1 41.3L579.7 38.6L586 40L594.2 37.4L602.5 37.7ZM907 160.7L908.4 160.9L911.9 163.9L914.1 164.2L914.9 163L917.9 161L920.6 163.6L923.1 167.1L925.4 167.4L927 168.7L922.8 169.1L922 173L921.1 174.8L919.3 175.9L919.4 178.4L918.2 178.6L915.1 176L916.8 173.6L915.3 172.1L913.4 172.5L907.5 176.1L907.4 172.7L905.2 171.9L903.1 170.5L904.5 168.9L901.8 167.2L902.8 165.9L900.9 165.1L899.9 163.8L901.1 162.9L904.8 164.4L907.5 164.7L908.2 164.1L905.7 161.4L907 160.7ZM905.7 176.3L902.3 175.6L899.8 173.3L899 171.4L900 171.3L901.5 172.6L903.7 172.6L903.7 173.4L905.7 176.3ZM874.8 152.8L875.4 152.2L879.6 153.1L887 153.9L893.8 156.3L894.7 157.2L897.7 156.4L902.4 157.5L903.9 159.5L907 160.7L905.7 161.4L908.2 164.1L907.5 164.7L904.8 164.4L901.1 162.9L899.9 163.8L892.9 164.5L888.1 162.1L882.8 162.3L883.5 160.2L882.3 156.8L879.4 154.9L876.6 154.4L874.8 152.8ZM744 137.5L748.2 137.8L750.7 136.7L755.1 136.6L756 135.7L756.9 135.8L757.8 137.5L753.8 138.8L753.4 140.8L751.6 141.3L751.6 142.7L749.7 142.6L748 141.8L747.1 142.7L743.6 142.5L744.7 142L743.5 139.9L744 137.5ZM818 24.7L817.2 28.2L824.9 31.5L820.3 35.3L826.1 41L822.7 45.3L827.2 49L825.2 52.2L832.6 55.7L830.7 58.2L826.1 61.1L815.4 67.5L806.3 67.9L797.5 69.7L789.3 70.8L786.5 68L781.6 66.4L782.7 61.5L780.3 57L782.7 54.1L787.2 50.9L798.7 45.5L802 44.4L801.5 42.3L794.5 40L792.8 38L792.7 30.3L784.9 26.9L778.2 24.5L781.2 23.1L786.8 25.8L793.3 25.5L798.7 26.8L803.4 24.5L805.9 20.9L813.7 19.2L820.1 21.2L818 24.7ZM787.8 124.6L786.4 125.9L785.4 127.9L784.4 128.4L779 126.9L777.4 127.2L776.2 128.4L773.8 129L770.9 129.4L768.9 129.6L768.5 130.6L764.3 131.2L762.4 130.7L759.9 129.4L759.4 127.6L759.8 127L760.5 125.9L762.7 126L764.4 125.5L765.5 124.8L765.9 123.6L767 123.4L767.8 122.5L769.3 122.5L771.6 122.1L774.1 123.9L777.1 122.8L779.4 123.4L783 122.6L787.8 124.6ZM750.1 114.5L752.5 116.1L756.2 116.5L755.9 117.9L758.6 118.9L759.3 117.6L762.8 118.2L763.2 119.8L767 120.1L769.3 122.5L767.8 122.5L767 123.4L765.9 123.6L765.5 124.8L764.6 125L762.7 126L760.5 125.9L759.8 127L757.5 126.1L755.1 126.3L751.3 124.8L749.5 125.2L746.7 127.2L743 125.6L740.2 123.5L737.6 122.3L737.1 120.2L736.2 118.7L739.8 117.6L741.7 116.3L745.3 115.4L746.5 114.4L747.9 115L750.1 114.5ZM857.1 297.9L856.6 295.9L858.8 288.5L859.3 285.2L860.8 283.7L864.5 282.9L867.1 280L870 285.8L871.3 290.4L874.1 292.8L880.9 297.5L883.7 300.4L886.4 303.3L887.9 305L890.4 306.5L888.9 307.7L886.8 307.3L885 305.7L883 302.7L880.8 301.1L879.5 299.4L875.1 297.4L871.7 297.3L870.5 296.3L867.6 297.5L864.5 295.2L863 298.9L857.1 297.9ZM384.2 470.9L385.6 473.7L385.3 480.5L390.6 481.4L392.6 480.4L396 481.8L396.9 483.3L397.4 487.9L398 489.8L399.9 490L401.7 489.2L403.5 490.1L403.5 492.9L402.9 495.8L401.9 498.7L401.1 503.1L396.5 506.9L392.6 507.7L387 507L381.9 505.6L386.8 498L386.1 495.8L381 493.9L374.9 490.2L370.8 489.4L361.6 481.2L363.5 475.3L363.7 472.6L366.1 468.2L374.8 466.7L379.4 466.8L384.1 469.3L384.2 470.9ZM935 275L938.9 283.3L940.5 286.7L936.9 288.1L936 290.3L935.8 292L930.9 294.1L922.9 296.5L918.4 300L916.2 300.3L914.7 300L911.8 302L908.6 303L904.4 303.3L903.1 303.5L902 304.9L900.7 305.2L899.9 306.5L897.5 306.4L895.9 307.1L892.4 306.8L891.1 303.9L891.3 301.2L890.4 299.7L889.5 296L888 293.9L889 293.7L888.5 291.4L889.1 290.4L888.9 288.3L891.1 286.7L890.6 284.6L891.9 282.1L894 283.4L895.3 282.9L901.1 282.8L902 283.3L906.8 283.8L908.7 283.6L910 285.3L912.3 284.4L915.9 279.2L920.6 276.9L935 275ZM849.8 223.2L855.3 224L857.5 222.5L858.7 220.7L862.5 220L863.3 218.3L865 217.5L860 212.5L870 209.9L871 209.2L877 210.6L884.4 214L898.5 224.1L907.8 224.5L912.3 225L913.5 227.4L917.1 227.2L919 231.6L921.5 232.7L922.4 234.5L925.8 236.6L926.1 238.6L925.6 240.3L926.2 242L927.6 243.4L928.3 245L929.1 246.2L930.6 247.2L931.9 246.9L932.9 248.8L933.1 249.9L935 255L950 257.5L951 256.5L953.3 260L950 270L935 275L920.6 276.9L915.9 279.2L912.3 284.4L910 285.3L908.7 283.6L906.8 283.8L902 283.3L901.1 282.8L895.3 282.9L894 283.4L891.9 282.1L890.6 284.6L891.1 286.7L888.9 288.3L888.2 286.1L886.7 284.6L886.4 282.6L883.8 280.8L881.1 276.6L879.7 272.6L876.2 269.1L874 268.3L870.7 263.5L870.1 260.1L870.3 257.1L867.5 251.6L865.1 249.6L862.4 248.6L860.8 245.7L861 244.6L859.7 242L858.2 240.9L856.2 237.1L853.2 233.1L850.7 229.7L848.2 229.7L848.9 227L849.2 225.2L849.8 223.2ZM838.7 194.3L839.7 193.1L843.3 193.1L847.9 191.6L844.5 193.8L844.9 194.7L843.4 194.9L842.6 194.8L841.9 194.2L841 194.1L839.6 194.6L838.7 194.3ZM838.7 194.3L839.6 194.6L841 194.1L841.9 194.2L842.4 195L843.4 194.9L844.3 194.5L845 195.1L839.9 197.1L837.5 196.5L836.3 194.5L838.7 194.3ZM664.2 194.2L666 197.4L666.3 200.4L668.1 205.7L669.4 206.7L668.5 208.7L661.9 209.5L659.7 211.4L656.8 211.8L656.5 215.5L650.7 217.5L648.8 220L644.7 221.3L639.7 222.1L631.6 225.8L631.7 231.7L630.9 231.7L631 234.4L627.9 234.6L626.3 235.7L624.1 235.7L622.2 235L618 235.6L616.4 239.5L614.8 239.8L612.5 246.1L605.5 251.5L603.9 258.4L601.8 260.7L601.2 262.5L590 262.9L590.1 260.6L592.1 259.2L593.7 256.6L593.4 254.9L595.1 251.4L597.9 248.2L599.6 247.4L600.9 244.5L601 241.8L602.8 238.7L606.1 236.9L609.3 231.8L611.9 229.8L616.6 229.3L620.5 225.8L623 224.5L627.2 220.3L625.9 214.1L627.8 209.8L628.5 207.2L631.7 203.8L636.7 201.5L640.4 199.4L643.8 194.3L645.4 191.2L649 191.2L652 193.3L656.8 193L662 194.1L664.2 194.2ZM859.3 260L839.5 260L820.1 260L800 260L800 241.6L800 223.8L798.5 219.8L799.8 216.7L799 214.6L800.8 212.2L807.5 212.1L812.3 213.4L817.3 214.9L819.6 215.6L823.4 214.1L825.5 212.6L829.9 212.2L833.4 212.9L834.8 215.3L836 213.7L840 214.9L843.9 215.2L846.3 213.9L849.1 221.2L849.6 222.5L848.2 224.5L847.1 228.3L845.8 230.9L844.6 231.8L842.9 230.1L840.7 227.9L837.1 220.7L838.7 226.5L841.7 231.5L845.5 239.3L847.4 242L849 244.8L853.5 250.4L852.5 251.2L852.6 254.5L858.5 259L859.3 260ZM800 260L800 270L794.3 270L794.2 272.1L774.2 262.5L754.3 253L749.3 255.7L745.7 257.5L742.9 254.8L735 252.6L732.8 249.5L728.9 247.2L726.5 248.1L724.7 245.3L724.6 243.2L721.6 239.5L723.6 237.4L723.1 234.3L723.8 231.6L723.4 229.3L724.3 225.2L724 222.9L722.4 218.5L724.9 217.3L725.3 215.2L724.8 213.1L728.2 211.2L729.7 209.6L732.2 208.2L732.4 204.3L738.3 206L740.4 205.6L744.6 206.4L751.2 208.7L753.6 213.1L758.1 214.1L765.1 216.2L770.4 218.7L772.9 217.4L775.3 215.1L774.1 211.2L775.7 208.8L779.3 206.5L782.7 205.8L789.5 206.8L791.2 209L793 209.1L794.6 209.9L799.6 210.5L800.8 212.2L799 214.6L799.8 216.7L798.5 219.8L800 223.8L800 241.6L800 260ZM913.9 330L899.8 345L893.3 345.2L888.8 348.7L885.6 348.8L884.3 350.4L880.9 350.4L878.8 348.7L874.3 350.8L872.8 352.9L869.5 352.5L868.4 351.9L867.2 352.1L865.6 352L859.3 347.8L855.8 347.8L854.1 346.1L854.1 343.3L851.5 342.5L848.5 337L846.3 335.9L845.4 333.9L842.8 331.4L839.8 331.1L841.5 328.2L844.1 328.1L844.9 326.6L844.8 322.1L846.3 316.8L848.7 315.4L849.2 313.4L851.3 309.6L854.3 307.1L856.4 302.2L857.1 297.9L863 298.9L864.5 295.2L867.6 297.5L870.5 296.3L871.7 297.3L875.1 297.4L879.5 299.4L880.8 301.1L883 302.7L885 305.7L886.8 307.3L885 309.5L883.3 311.8L883.7 313.2L883.8 314.7L886.6 314.8L887.8 314.5L888.9 315.4L887.8 317.1L889.6 319.9L891.5 322.3L893.4 324.1L909.7 330L913.9 330ZM886.8 307.3L888.9 307.7L890.4 306.5L891.6 308L891.4 310.1L888.6 311.3L890.7 312.7L888.9 315.4L887.8 314.5L886.6 314.8L883.8 314.7L883.7 313.2L883.3 311.8L885 309.5L886.8 307.3ZM919.7 312.9L919.7 315.1L919.7 320.1L919.7 322.7L917.4 325.8L913.9 330L909.7 330L893.4 324.1L891.5 322.3L889.6 319.9L887.8 317.1L888.9 315.4L890.7 312.7L892.4 313.6L893.3 315.7L895.6 317.8L898.1 317.8L902.8 316.5L908.2 315.9L912.6 314.4L915.1 314L916.9 313.1L919.7 312.9L919.7 312.9ZM844.5 374.8L834.3 375.1L828.8 375.1L827.1 375.7L824.1 377.2L822.9 376.7L822.9 372.9L824.1 371L824.4 367L825.4 364.7L827.3 362.1L829.3 360.8L830.9 359L828.9 358.3L829.2 352.5L831.2 351.1L834.4 352.2L838.4 351L842 351L845 348.8L847.4 352.2L848 354.7L850.2 360.5L848.4 364.1L845.9 367.4L844.5 369.5L844.5 374.8ZM827.1 375.7L829.1 378.5L828.8 381.4L827.3 382.1L824.7 381.7L823.2 384.6L820.1 384.2L820.6 381.5L821.3 381.1L821.5 378.1L822.9 376.7L824.1 377.2L827.1 375.7ZM767.8 156.8L763.4 154.9L761.5 152.8L759.6 151.7L757.3 149.8L756.2 148.2L753.8 145.9L754.8 143.8L756.6 145L757.7 143.9L760 143.8L764.3 144.7L767.8 144.6L770 145.7L771.8 145.7L770.6 147.9L773 149.8L772.3 152.2L771.1 152.4L770.2 152.8L768.5 154L767.8 156.8ZM786.9 158.4L789.4 160L789.8 163.3L788.8 163.5L788 164.3L785.3 164.3L783.4 165.3L780.1 165.8L778 164.6L777.3 162.4L778 160.7L778.8 159.7L781.8 159L782.9 158.8L784.6 158.5L786.9 158.4ZM769.1 140.5L773 139.1L776.1 139.4L778.8 141.3L779.4 142.9L782.4 144.1L782.8 146.2L785.7 147.6L787.3 146.5L788.5 147.1L787.4 148L788.3 148.8L787.1 150L787.5 151.8L789.9 153.9L788 155.5L787.2 157.1L787.7 157.7L786.9 158.4L784.6 158.5L782.9 158.8L783.3 157.8L783.9 156.6L783.2 156.6L782.2 155.7L781.4 155.5L780.7 154.7L779.8 154.3L779.1 153.6L778.2 153.9L777.5 155.6L776.3 155.9L774.8 154.5L773.2 153.9L772.4 153.2L771.1 152.4L772.3 152.2L773 149.8L770.6 147.9L771.8 145.7L770 145.7L772 143.8L770.4 142.4L769.1 140.5ZM775.4 157.1L774 157.5L773.7 156.6L771.5 159L771.9 160.6L770.8 160.2L769.4 158.6L767.3 157.6L767.8 156.8L768.5 154L770.2 152.8L771.1 152.4L772.4 153.2L773.2 153.9L774.8 154.5L776.7 155.5L775.4 157.1ZM778 160.7L777.6 158.9L776.4 158.4L775.4 157.1L776.3 155.9L777.5 155.6L778.2 153.9L779.1 153.6L779.8 154.3L780.7 154.7L781.4 155.5L782.2 155.7L783.2 156.6L783.9 156.6L783.3 157.8L782.7 158.4L781.8 159L778.8 159.7L778.6 160.8L778 160.7ZM366.6 316.2L369.5 315.5L370.5 315.7L370.3 319.5L366.1 320L365.3 319.5L366.7 318.2L366.6 316.2ZM829.2 352.5L824.8 349.1L823.6 347L820.8 348.1L818.5 347.7L817.1 348.6L814.9 348L811.9 343.8L811.1 342.2L807.3 340.3L806.1 337.3L804 335.1L800.6 332.5L800.6 330.9L797.8 328.9L794.4 326.9L796 326.4L797.7 325.4L799 320.9L800.3 318.6L804 317.9L804.8 319.3L807.4 322.2L808.8 322.7L810.6 321.8L814.2 322L814.9 323L819.8 323L820 322L822.6 321L823.1 319.6L825 318.5L829.2 321.5L831.8 320.9L834.3 317.3L837 314.6L836.6 311.6L835.4 310.1L838.4 309.9L838.7 308.8L841 309.1L840.4 312.8L841 316.4L843.6 318.4L844.2 320.1L844.1 322.6L844.9 326.6L844.1 328.1L841.5 328.2L839.8 331.1L842.8 331.4L845.4 333.9L846.3 335.9L848.5 337L851.5 342.5L848.1 345.8L845 348.8L842 351L838.4 351L834.4 352.2L831.2 351.1L829.2 352.5Z" fill="rgba(255,255,255,0.11)" stroke="rgba(255,255,255,0.38)" stroke-width="0.7" stroke-linejoin="round"/></svg>